<svg xmlns="http://www.w3.org/2000/svg" xmlns:xlink="http://www.w3.org/1999/xlink" viewBox="0 0 500 118"><defs><linearGradient id="a" x1="960" y1="513" x2="960" y2="568.04" gradientUnits="userSpaceOnUse"><stop offset="0" stop-color="#fff"/><stop offset="1"/></linearGradient></defs><title>home-title</title><g style="isolation:isolate"><polygon points="14.17 59 59 118 29.5 59 59 0 14.17 59" style="fill:#398bcb"/><polygon points="59 0 0 59 59 118 14.17 59 59 0" style="fill:#005486"/><polygon points="485.83 59 441 0 470.5 59 441 118 485.83 59" style="fill:#398bcb"/><polygon points="441 118 500 59 441 0 485.83 59 441 118" style="fill:#005486"/><path d="M1144.14,517.22h-13.5v-8.13h15.8v-5.7h-22.83v34.13h22.88v-5.65h-15.84v-9.19h13.5Zm-62.58-13.83v34.13h7v-9.33l-.7-16.08,9.19,25.41h4.83l9.21-25.43-.7,16.1v9.33h7.05V503.4h-9.23l-8.72,24.75-8.77-24.75Zm-12.23,18q0,5.32-1.92,8.1a6.73,6.73,0,0,1-11-.11q-1.92-2.88-1.92-8.11v-1.66q0-5.32,1.95-8.07a6.79,6.79,0,0,1,10.95,0q1.92,2.79,1.92,8.16Zm7.13-1.64a20.43,20.43,0,0,0-1.82-8.85,13.52,13.52,0,0,0-5.13-5.88,15,15,0,0,0-15.16,0,13.52,13.52,0,0,0-5.13,5.88,20.49,20.49,0,0,0-1.82,8.87v1.69a20,20,0,0,0,1.85,8.71,13.55,13.55,0,0,0,5.16,5.82,15.06,15.06,0,0,0,15.18,0,13.41,13.41,0,0,0,5.1-5.86,20.6,20.6,0,0,0,1.78-8.84Zm-34.17-16.31h-7v13.83h-13.71V503.4h-7v34.13h7V522.9h13.71v14.63h7Zm-46.2,13.83h-13.5v-8.13h15.8v-5.7H975.55v34.13h22.88v-5.65H982.58v-9.19h13.5ZM933.5,503.4v34.13h7v-9.33l-.7-16.08L949,537.52h4.83l9.21-25.43-.7,16.1v9.33h7.05V503.4h-9.23l-8.72,24.75-8.77-24.75Zm-12.23,18q0,5.32-1.92,8.1a6.73,6.73,0,0,1-11-.11q-1.92-2.88-1.92-8.11v-1.66q0-5.32,1.95-8.07a6.79,6.79,0,0,1,10.95,0q1.92,2.79,1.92,8.16Zm7.13-1.64a20.43,20.43,0,0,0-1.82-8.85,13.52,13.52,0,0,0-5.13-5.88,15,15,0,0,0-15.16,0,13.52,13.52,0,0,0-5.13,5.88,20.49,20.49,0,0,0-1.82,8.87v1.69a20,20,0,0,0,1.85,8.71,13.55,13.55,0,0,0,5.16,5.82,15.06,15.06,0,0,0,15.18,0,13.41,13.41,0,0,0,5.1-5.86,20.6,20.6,0,0,0,1.78-8.84Zm-39.68,6.45a6.72,6.72,0,0,1-1.84,4.61,6.94,6.94,0,0,1-4.86,1.49,5.86,5.86,0,0,1-5.29-2.55q-1.68-2.55-1.68-8.09V519q0-5.3,1.79-7.82a6,6,0,0,1,5.26-2.52,6.81,6.81,0,0,1,4.82,1.49,7.13,7.13,0,0,1,1.84,4.79h7a13,13,0,0,0-4.17-8.88,15.49,15.49,0,0,0-17-1.16,13,13,0,0,0-5,5.75,20.46,20.46,0,0,0-1.73,8.67v2.09q0,7.71,3.76,12.13T882,538q6,0,9.67-3.16a12.08,12.08,0,0,0,4.07-8.67ZM851.5,503.4h-7v34.13h22v-5.65H851.5ZM838,517.22H824.5v-8.13h15.8v-5.7H817.47v34.13h22.88v-5.65H824.5v-9.19H838ZM796.47,503.4h-6l-5.62,24.23-4.62-24.23h-7l7.57,34.13h7.08l5.55-22.83L799,537.52h7.08l7.57-34.12h-7l-4.59,24.28Z" transform="translate(-710 -481)" style="fill:#fff"/><path d="M1105.56,561.2a.76.76,0,0,0,.58.21.78.78,0,0,0,.59-.21.73.73,0,0,0,.2-.53.78.78,0,0,0-.2-.55.76.76,0,0,0-.59-.22.74.74,0,0,0-.58.22.79.79,0,0,0-.19.55A.75.75,0,0,0,1105.56,561.2Zm-.54-7.3a1.29,1.29,0,0,0-.56-.1,2,2,0,0,0-1.76,1l0-.85h-1.23v7.4h1.26v-5.25a1.67,1.67,0,0,1,1.69-1.06,3.81,3.81,0,0,1,.62,0Zm-6.82,1.47a2.41,2.41,0,0,1,.52,1.49v.1H1095a2.71,2.71,0,0,1,.64-1.56,1.69,1.69,0,0,1,1.29-.56A1.59,1.59,0,0,1,1098.19,555.37Zm1.69,4.67-.77-.6a2.85,2.85,0,0,1-.81.72,2.2,2.2,0,0,1-1.13.27,2,2,0,0,1-1.56-.67A2.63,2.63,0,0,1,1095,558h5v-.53a4.11,4.11,0,0,0-.8-2.72,2.77,2.77,0,0,0-2.24-1,3,3,0,0,0-1.64.49,3.28,3.28,0,0,0-1.18,1.35,4.44,4.44,0,0,0-.42,2v.23a3.67,3.67,0,0,0,.94,2.64,3.23,3.23,0,0,0,2.45,1A3.11,3.11,0,0,0,1099.88,560Zm-13.58-6.1v7.4h1.26v-5.27a2.23,2.23,0,0,1,.72-.86,1.83,1.83,0,0,1,1.08-.33,1.46,1.46,0,0,1,1.12.38,1.7,1.7,0,0,1,.37,1.18v4.89h1.26v-4.89q0-2.65-2.37-2.65a2.69,2.69,0,0,0-2.21,1.07l0-.93Zm-6.36,1.65a1.68,1.68,0,0,1,1.44-.72,1.87,1.87,0,0,1,1.74,1.06v3.38a1.85,1.85,0,0,1-1.76,1.09,1.67,1.67,0,0,1-1.44-.71,3.32,3.32,0,0,1-.51-2A3.61,3.61,0,0,1,1079.93,555.59Zm-1,4.83a2.53,2.53,0,0,0,2.1,1,2.6,2.6,0,0,0,2.07-.87v.64a2,2,0,0,1-.52,1.46,1.94,1.94,0,0,1-1.44.52,2.47,2.47,0,0,1-2-1l-.66.76a2.7,2.7,0,0,0,1.17.94,3.8,3.8,0,0,0,1.57.34,3.14,3.14,0,0,0,2.29-.83,3,3,0,0,0,.85-2.26v-7.22h-1.16l-.06.82a2.76,2.76,0,0,0-4.23.06,4.35,4.35,0,0,0-.8,2.75A4.57,4.57,0,0,0,1078.95,560.42Zm-3.71-7.94a.72.72,0,0,0,.56.21.68.68,0,0,0,.75-.72.75.75,0,0,0-.19-.52.72.72,0,0,0-.56-.21.71.71,0,0,0-.56.21.75.75,0,0,0-.19.52A.73.73,0,0,0,1075.24,552.49Zm1.18,1.45h-1.26v7.4h1.26Zm-4.72,6.21a2,2,0,0,1-1.15.29,2,2,0,0,1-1.25-.37,1.31,1.31,0,0,1-.51-1h-1.26a2.12,2.12,0,0,0,.39,1.22,2.56,2.56,0,0,0,1.07.88,3.73,3.73,0,0,0,1.57.31,3.33,3.33,0,0,0,2.06-.6,1.89,1.89,0,0,0,.79-1.59,1.74,1.74,0,0,0-.28-1,2.23,2.23,0,0,0-.87-.71,6.82,6.82,0,0,0-1.53-.51,4.46,4.46,0,0,1-1.31-.44.77.77,0,0,1-.36-.69,1,1,0,0,1,.39-.79,1.73,1.73,0,0,1,1.08-.3,1.65,1.65,0,0,1,1.11.38,1.14,1.14,0,0,1,.44.9h1.27a2.06,2.06,0,0,0-.78-1.66,3.09,3.09,0,0,0-2-.65,3,3,0,0,0-2,.63,1.92,1.92,0,0,0-.77,1.54,1.63,1.63,0,0,0,.27.94,2.17,2.17,0,0,0,.83.68,6.37,6.37,0,0,0,1.52.49,3.72,3.72,0,0,1,1.35.49.93.93,0,0,1,.39.8A.89.89,0,0,1,1071.7,560.15Zm-7.12-4.78a2.41,2.41,0,0,1,.52,1.49v.1h-3.71a2.71,2.71,0,0,1,.64-1.56,1.69,1.69,0,0,1,1.29-.56A1.59,1.59,0,0,1,1064.58,555.37Zm1.69,4.67-.77-.6a2.85,2.85,0,0,1-.81.72,2.2,2.2,0,0,1-1.13.27,2,2,0,0,1-1.56-.67,2.63,2.63,0,0,1-.64-1.77h5v-.53a4.11,4.11,0,0,0-.8-2.72,2.77,2.77,0,0,0-2.24-1,3,3,0,0,0-1.64.49,3.28,3.28,0,0,0-1.18,1.35,4.44,4.44,0,0,0-.42,2v.23a3.67,3.67,0,0,0,.94,2.64,3.23,3.23,0,0,0,2.45,1A3.11,3.11,0,0,0,1066.27,560ZM1054,555.59a1.69,1.69,0,0,1,1.45-.72,1.86,1.86,0,0,1,1.74,1v3.4a1.84,1.84,0,0,1-1.76,1.08,1.68,1.68,0,0,1-1.44-.71,3.28,3.28,0,0,1-.52-2A3.61,3.61,0,0,1,1054,555.59Zm-1.78,2.08a4.38,4.38,0,0,0,.81,2.75,2.53,2.53,0,0,0,2.1,1.05,2.58,2.58,0,0,0,2.11-.93l.06.79h1.16v-10.5h-1.26v3.86a2.74,2.74,0,0,0-4.17.15,4.33,4.33,0,0,0-.81,2.74Zm-9.72-5a1.11,1.11,0,0,1,.89-.38,1.25,1.25,0,0,1,.86.3,1,1,0,0,1,.34.76,1.43,1.43,0,0,1-.17.72,2.14,2.14,0,0,1-.64.63l-.81.57a2.87,2.87,0,0,1-.81-1.64A1.42,1.42,0,0,1,1042.49,552.66Zm-.62,7.29a1.68,1.68,0,0,1-.52-1.29,2.28,2.28,0,0,1,1.14-1.73l.23-.16,2.43,2.91a2.66,2.66,0,0,1-1.84.77A2,2,0,0,1,1041.87,560Zm-.91.75a3.42,3.42,0,0,0,2.34.77,4.2,4.2,0,0,0,1.38-.24,3.47,3.47,0,0,0,1.19-.69l.66.79h1.52l-1.42-1.7a4.77,4.77,0,0,0,.84-2.89h-1.14a4.19,4.19,0,0,1-.46,2l-2.21-2.65.73-.54a4,4,0,0,0,1.06-1.07,2.13,2.13,0,0,0,.3-1.11,1.93,1.93,0,0,0-.67-1.51,2.45,2.45,0,0,0-1.7-.6,2.52,2.52,0,0,0-1.82.64,2.52,2.52,0,0,0-.44,2.75,6.6,6.6,0,0,0,.89,1.3,6.1,6.1,0,0,0-1.53,1.4,2.33,2.33,0,0,0-.4,1.32A2.58,2.58,0,0,0,1041,560.7Zm-5.24-6.8a1.29,1.29,0,0,0-.56-.1,2,2,0,0,0-1.76,1l0-.85h-1.23v7.4h1.26v-5.25a1.67,1.67,0,0,1,1.69-1.06,3.81,3.81,0,0,1,.62,0Zm-6.82,1.47a2.41,2.41,0,0,1,.52,1.49v.1h-3.71a2.71,2.71,0,0,1,.64-1.56,1.69,1.69,0,0,1,1.29-.56A1.59,1.59,0,0,1,1028.9,555.37Zm1.69,4.67-.77-.6a2.85,2.85,0,0,1-.81.72,2.2,2.2,0,0,1-1.13.27,2,2,0,0,1-1.56-.67,2.63,2.63,0,0,1-.64-1.77h5v-.53a4.11,4.11,0,0,0-.8-2.72,2.77,2.77,0,0,0-2.24-1,3,3,0,0,0-1.64.49,3.28,3.28,0,0,0-1.18,1.35,4.44,4.44,0,0,0-.42,2v.23a3.67,3.67,0,0,0,.94,2.64,3.23,3.23,0,0,0,2.45,1A3.11,3.11,0,0,0,1030.58,560Zm-9.27-.32a1.71,1.71,0,0,1-1.45.72,1.86,1.86,0,0,1-1.74-1v-3.53a1.86,1.86,0,0,1,1.72-1,1.72,1.72,0,0,1,1.46.72,3.27,3.27,0,0,1,.53,2A3.57,3.57,0,0,1,1021.32,559.72Zm1.8-2.12a4.48,4.48,0,0,0-.78-2.8,2.52,2.52,0,0,0-2.11-1,2.6,2.6,0,0,0-2.15,1l-.06-.82h-1.16v10.24h1.26v-3.56a2.71,2.71,0,0,0,2.12.85,2.48,2.48,0,0,0,2.09-1,4.43,4.43,0,0,0,.77-2.72Zm-12.72-2a1.82,1.82,0,0,1,1.51-.75,1.84,1.84,0,0,1,1.53.76,3.16,3.16,0,0,1,.58,2,3.46,3.46,0,0,1-.57,2.12,1.93,1.93,0,0,1-3.06,0,3.16,3.16,0,0,1-.57-2A3.43,3.43,0,0,1,1010.4,555.58Zm-1.85,2.07a4,4,0,0,0,.93,2.77,3.11,3.11,0,0,0,2.44,1,3.28,3.28,0,0,0,1.77-.48,3.14,3.14,0,0,0,1.18-1.34,4.4,4.4,0,0,0,.41-1.94v-.09a4,4,0,0,0-.93-2.78,3.12,3.12,0,0,0-2.44-1,3.24,3.24,0,0,0-1.74.47,3.19,3.19,0,0,0-1.19,1.34,4.37,4.37,0,0,0-.43,2Zm-1.69-6.82h-1.26v10.5h1.26Zm-4.62,4.54a2.41,2.41,0,0,1,.52,1.49v.1h-3.71a2.71,2.71,0,0,1,.64-1.56,1.69,1.69,0,0,1,1.29-.56A1.59,1.59,0,0,1,1002.24,555.37Zm1.69,4.67-.77-.6a2.85,2.85,0,0,1-.81.72,2.2,2.2,0,0,1-1.13.27,2,2,0,0,1-1.56-.67A2.63,2.63,0,0,1,999,558h5v-.53a4.11,4.11,0,0,0-.8-2.72,2.77,2.77,0,0,0-2.24-1,3,3,0,0,0-1.64.49,3.28,3.28,0,0,0-1.18,1.35,4.44,4.44,0,0,0-.42,2v.23a3.67,3.67,0,0,0,.94,2.64,3.23,3.23,0,0,0,2.45,1A3.11,3.11,0,0,0,1003.93,560Zm-12-6.1h-1.29l2.68,7.4h1l2.65-7.4h-1.29l-1.83,5.68Zm-3.72,1.43a2.41,2.41,0,0,1,.52,1.49v.1H985a2.71,2.71,0,0,1,.64-1.56,1.69,1.69,0,0,1,1.29-.56A1.59,1.59,0,0,1,988.22,555.37Zm1.69,4.67-.77-.6a2.85,2.85,0,0,1-.81.72,2.2,2.2,0,0,1-1.13.27,2,2,0,0,1-1.56-.67A2.63,2.63,0,0,1,985,558h5v-.53a4.11,4.11,0,0,0-.8-2.72,2.77,2.77,0,0,0-2.24-1,3,3,0,0,0-1.64.49,3.28,3.28,0,0,0-1.18,1.35,4.44,4.44,0,0,0-.42,2v.23a3.67,3.67,0,0,0,.94,2.64,3.23,3.23,0,0,0,2.45,1A3.11,3.11,0,0,0,989.91,560Zm-12.28-4.45a1.69,1.69,0,0,1,1.45-.72,1.86,1.86,0,0,1,1.74,1v3.4a1.84,1.84,0,0,1-1.76,1.08,1.68,1.68,0,0,1-1.44-.71,3.28,3.28,0,0,1-.52-2A3.61,3.61,0,0,1,977.63,555.59Zm-1.78,2.08a4.38,4.38,0,0,0,.81,2.75,2.53,2.53,0,0,0,2.1,1.05,2.58,2.58,0,0,0,2.11-.93l.06.79h1.16v-10.5h-1.26v3.86a2.74,2.74,0,0,0-4.17.15,4.33,4.33,0,0,0-.81,2.74Zm-9.58-2.08a1.69,1.69,0,0,1,1.45-.72,1.86,1.86,0,0,1,1.74,1v3.4a1.84,1.84,0,0,1-1.76,1.08,1.68,1.68,0,0,1-1.44-.71,3.28,3.28,0,0,1-.52-2A3.61,3.61,0,0,1,966.27,555.59Zm-1.78,2.08a4.38,4.38,0,0,0,.81,2.75,2.53,2.53,0,0,0,2.1,1.05,2.58,2.58,0,0,0,2.11-.93l.06.79h1.16v-10.5h-1.26v3.86a2.74,2.74,0,0,0-4.17.15,4.33,4.33,0,0,0-.81,2.74Zm-7.42-3.73v7.4h1.26v-5.27a2.23,2.23,0,0,1,.72-.86,1.83,1.83,0,0,1,1.08-.33,1.46,1.46,0,0,1,1.12.38,1.7,1.7,0,0,1,.37,1.18v4.89h1.26v-4.89q0-2.65-2.37-2.65a2.69,2.69,0,0,0-2.21,1.07l0-.93Zm-3.25,1.43a2.41,2.41,0,0,1,.52,1.49v.1h-3.71a2.71,2.71,0,0,1,.64-1.56,1.69,1.69,0,0,1,1.29-.56A1.59,1.59,0,0,1,953.82,555.37Zm1.69,4.67-.77-.6a2.85,2.85,0,0,1-.81.72,2.2,2.2,0,0,1-1.13.27,2,2,0,0,1-1.56-.67,2.63,2.63,0,0,1-.64-1.77h5v-.53a4.11,4.11,0,0,0-.8-2.72,2.77,2.77,0,0,0-2.24-1,3,3,0,0,0-1.64.49,3.28,3.28,0,0,0-1.18,1.35,4.44,4.44,0,0,0-.42,2v.23a3.67,3.67,0,0,0,.94,2.64,3.23,3.23,0,0,0,2.45,1A3.11,3.11,0,0,0,955.51,560Zm-7.09-3.45h-3.34v1h3.34Zm-6.75-4.44v1.79h-1.35v1h1.35v4.59a2.2,2.2,0,0,0,.43,1.46,1.58,1.58,0,0,0,1.28.51,3.7,3.7,0,0,0,1-.14v-1a3.06,3.06,0,0,1-.6.08.78.78,0,0,1-.63-.22,1,1,0,0,1-.18-.67v-4.59h1.38v-1h-1.38v-1.79Zm-8.18,1.79v7.4h1.26v-5.27a2.23,2.23,0,0,1,.72-.86,1.83,1.83,0,0,1,1.08-.33,1.46,1.46,0,0,1,1.12.38,1.7,1.7,0,0,1,.37,1.18v4.89h1.26v-4.89q0-2.65-2.37-2.65a2.69,2.69,0,0,0-2.21,1.07l0-.93ZM927,555.58a1.82,1.82,0,0,1,1.51-.75,1.84,1.84,0,0,1,1.53.76,3.16,3.16,0,0,1,.58,2,3.46,3.46,0,0,1-.57,2.12,1.93,1.93,0,0,1-3.06,0,3.16,3.16,0,0,1-.57-2A3.43,3.43,0,0,1,927,555.58Zm-1.85,2.07a4,4,0,0,0,.93,2.77,3.11,3.11,0,0,0,2.44,1,3.28,3.28,0,0,0,1.77-.48,3.14,3.14,0,0,0,1.18-1.34,4.4,4.4,0,0,0,.41-1.94v-.09a4,4,0,0,0-.93-2.78,3.12,3.12,0,0,0-2.44-1,3.24,3.24,0,0,0-1.74.47,3.19,3.19,0,0,0-1.19,1.34,4.37,4.37,0,0,0-.43,2Zm-.69-3.76a1.29,1.29,0,0,0-.56-.1,2,2,0,0,0-1.76,1l0-.85h-1.23v7.4h1.26v-5.25a1.67,1.67,0,0,1,1.69-1.06,3.81,3.81,0,0,1,.62,0Zm-6.55,7.44v-6.42h1.58v-1h-1.58v-.78a1.46,1.46,0,0,1,.33-1,1.23,1.23,0,0,1,1-.36,3.63,3.63,0,0,1,.68.06l.07-1a3.35,3.35,0,0,0-.87-.12,2.4,2.4,0,0,0-1.8.65,2.52,2.52,0,0,0-.64,1.84v.76H915.5v1h1.17v6.42Zm-9.47-9.19v1.79h-1.35v1h1.35v4.59a2.2,2.2,0,0,0,.43,1.46,1.58,1.58,0,0,0,1.28.51,3.7,3.7,0,0,0,1-.14v-1a3.06,3.06,0,0,1-.6.08.78.78,0,0,1-.63-.22,1,1,0,0,1-.18-.67v-4.59h1.38v-1h-1.38v-1.79Zm-6.9-1.31H900.3v10.5h1.26v-5.27a2.23,2.23,0,0,1,.72-.86,1.83,1.83,0,0,1,1.08-.33,1.46,1.46,0,0,1,1.12.38,1.7,1.7,0,0,1,.37,1.18v4.89h1.26v-4.89q0-2.65-2.37-2.65a2.69,2.69,0,0,0-2.19,1Zm-7.63,4.76a1.68,1.68,0,0,1,1.44-.72,1.87,1.87,0,0,1,1.74,1.06v3.38a1.85,1.85,0,0,1-1.76,1.09,1.67,1.67,0,0,1-1.44-.71,3.32,3.32,0,0,1-.51-2A3.61,3.61,0,0,1,893.93,555.59Zm-1,4.83a2.53,2.53,0,0,0,2.1,1,2.6,2.6,0,0,0,2.07-.87v.64a2,2,0,0,1-.52,1.46,1.94,1.94,0,0,1-1.44.52,2.47,2.47,0,0,1-2-1l-.66.76a2.7,2.7,0,0,0,1.17.94,3.8,3.8,0,0,0,1.57.34,3.14,3.14,0,0,0,2.29-.83,3,3,0,0,0,.85-2.26v-7.22h-1.16l-.06.82a2.76,2.76,0,0,0-4.23.06,4.35,4.35,0,0,0-.8,2.75A4.57,4.57,0,0,0,892.95,560.42Zm-3.63.91h1.2v-7.4h-1.26v5.38a1.89,1.89,0,0,1-1.93,1.08q-1.37,0-1.37-1.68v-4.78H884.7v4.81a3,3,0,0,0,.63,2,2.3,2.3,0,0,0,1.8.69,2.69,2.69,0,0,0,2.17-.87ZM878.56,560a1.15,1.15,0,0,1-.4-.93q0-1.36,2.32-1.36h1v1.52a1.86,1.86,0,0,1-.77.8,2.22,2.22,0,0,1-1.13.31A1.52,1.52,0,0,1,878.56,560Zm4.44,1.3v-.11a4.16,4.16,0,0,1-.26-1.62v-3.4a2.31,2.31,0,0,0-.75-1.76,2.92,2.92,0,0,0-2-.64,3.58,3.58,0,0,0-1.48.3,2.69,2.69,0,0,0-1.07.82A1.74,1.74,0,0,0,877,556h1.27a1,1,0,0,1,.46-.83,1.84,1.84,0,0,1,1.13-.34,1.59,1.59,0,0,1,1.17.39,1.42,1.42,0,0,1,.4,1.06v.58h-1.23a4.14,4.14,0,0,0-2.47.64,2.09,2.09,0,0,0-.88,1.79,2,2,0,0,0,.7,1.57,2.61,2.61,0,0,0,1.79.62,2.82,2.82,0,0,0,2.11-.92,2.66,2.66,0,0,0,.18.78Zm-10-9.19v1.79h-1.35v1H873v4.59a2.2,2.2,0,0,0,.43,1.46,1.58,1.58,0,0,0,1.28.51,3.7,3.7,0,0,0,1-.14v-1a3.06,3.06,0,0,1-.6.08.78.78,0,0,1-.63-.22,1,1,0,0,1-.18-.67v-4.59h1.38v-1h-1.38v-1.79Zm-6.89,9.19v-6.42h1.58v-1H866.1v-.78a1.46,1.46,0,0,1,.33-1,1.23,1.23,0,0,1,1-.36,3.63,3.63,0,0,1,.68.06l.07-1a3.35,3.35,0,0,0-.87-.12,2.4,2.4,0,0,0-1.8.65,2.52,2.52,0,0,0-.64,1.84v.76h-1.17v1h1.17v6.42Zm-3.91-10.5h-1.26v10.5h1.26Zm-4.62,4.54a2.41,2.41,0,0,1,.52,1.49v.1h-3.71a2.71,2.71,0,0,1,.64-1.56,1.69,1.69,0,0,1,1.29-.56A1.59,1.59,0,0,1,857.57,555.37Zm1.69,4.67-.77-.6a2.85,2.85,0,0,1-.81.72,2.21,2.21,0,0,1-1.13.27,2,2,0,0,1-1.56-.67,2.63,2.63,0,0,1-.64-1.77h5v-.53a4.11,4.11,0,0,0-.8-2.72,2.77,2.77,0,0,0-2.24-1,3,3,0,0,0-1.64.49,3.28,3.28,0,0,0-1.18,1.35,4.44,4.44,0,0,0-.42,2v.23a3.67,3.67,0,0,0,.94,2.64,3.23,3.23,0,0,0,2.45,1A3.11,3.11,0,0,0,859.26,560Zm-9.2.11a2,2,0,0,1-1.15.29,2,2,0,0,1-1.25-.37,1.31,1.31,0,0,1-.51-1h-1.26a2.12,2.12,0,0,0,.39,1.22,2.55,2.55,0,0,0,1.07.88,3.73,3.73,0,0,0,1.57.31,3.33,3.33,0,0,0,2.06-.6,1.89,1.89,0,0,0,.79-1.59,1.74,1.74,0,0,0-.28-1,2.24,2.24,0,0,0-.87-.71,6.83,6.83,0,0,0-1.53-.51,4.45,4.45,0,0,1-1.31-.44.77.77,0,0,1-.36-.69,1,1,0,0,1,.39-.79,1.73,1.73,0,0,1,1.08-.3,1.65,1.65,0,0,1,1.11.38,1.14,1.14,0,0,1,.44.9h1.27a2.06,2.06,0,0,0-.78-1.66,3.09,3.09,0,0,0-2-.65,3,3,0,0,0-2,.63,1.92,1.92,0,0,0-.77,1.54,1.63,1.63,0,0,0,.27.94,2.17,2.17,0,0,0,.83.68,6.37,6.37,0,0,0,1.52.49,3.72,3.72,0,0,1,1.35.49.93.93,0,0,1,.39.8A.89.89,0,0,1,850.05,560.15Zm-13.5-.11a1.15,1.15,0,0,1-.4-.93q0-1.36,2.32-1.36h1v1.52a1.86,1.86,0,0,1-.77.8,2.22,2.22,0,0,1-1.13.31A1.52,1.52,0,0,1,836.55,560Zm4.44,1.3v-.11a4.16,4.16,0,0,1-.26-1.62v-3.4a2.31,2.31,0,0,0-.75-1.76,2.92,2.92,0,0,0-2-.64,3.58,3.58,0,0,0-1.48.3,2.68,2.68,0,0,0-1.07.82A1.74,1.74,0,0,0,835,556h1.27a1,1,0,0,1,.46-.83,1.84,1.84,0,0,1,1.13-.34,1.59,1.59,0,0,1,1.17.39,1.42,1.42,0,0,1,.4,1.06v.58h-1.23a4.14,4.14,0,0,0-2.47.64,2.09,2.09,0,0,0-.88,1.79,2,2,0,0,0,.7,1.57,2.61,2.61,0,0,0,1.79.62,2.82,2.82,0,0,0,2.11-.92,2.65,2.65,0,0,0,.18.78Zm-21.64-7.4v7.4h1.26v-5.4a1.69,1.69,0,0,1,1.7-1.06,1.41,1.41,0,0,1,1.58,1.61v4.85h1.27v-4.91a1.7,1.7,0,0,1,.54-1.13,1.68,1.68,0,0,1,1.17-.42,1.6,1.6,0,0,1,1.22.39,1.7,1.7,0,0,1,.36,1.19v4.88h1.26v-5q0-2.58-2.47-2.58a2.84,2.84,0,0,0-1.4.33,2.8,2.8,0,0,0-1,.86,2.11,2.11,0,0,0-2.11-1.19,2.73,2.73,0,0,0-2.19,1l0-.82Zm-1.71-.85a3.17,3.17,0,0,0,.34-1.36v-.89h-1.25v1a3.29,3.29,0,0,1-.66,1.87l.72.49A3.15,3.15,0,0,0,817.64,553.09Zm-3.14-1.71h-1.31v10h1.31Z" transform="translate(-710 -481)" style="fill:#fff"/><path d="M1070.51,578a.76.76,0,0,0,.58.21.78.78,0,0,0,.59-.21.73.73,0,0,0,.2-.53.78.78,0,0,0-.2-.55.76.76,0,0,0-.59-.22.74.74,0,0,0-.58.22.79.79,0,0,0-.19.55A.75.75,0,0,0,1070.51,578Zm-.54-7.3a1.29,1.29,0,0,0-.56-.1,2,2,0,0,0-1.76,1l0-.85h-1.23v7.4h1.26v-5.25a1.67,1.67,0,0,1,1.69-1.06,3.81,3.81,0,0,1,.62,0Zm-6.82,1.47a2.41,2.41,0,0,1,.52,1.49v.1H1060a2.71,2.71,0,0,1,.64-1.56,1.69,1.69,0,0,1,1.29-.56A1.59,1.59,0,0,1,1063.14,572.18Zm1.69,4.67-.77-.6a2.85,2.85,0,0,1-.81.72,2.2,2.2,0,0,1-1.13.27,2,2,0,0,1-1.56-.67,2.63,2.63,0,0,1-.64-1.77h5v-.53a4.11,4.11,0,0,0-.8-2.72,2.77,2.77,0,0,0-2.24-1,3,3,0,0,0-1.64.49,3.28,3.28,0,0,0-1.18,1.35,4.44,4.44,0,0,0-.42,2v.23a3.67,3.67,0,0,0,.94,2.64,3.23,3.23,0,0,0,2.45,1A3.11,3.11,0,0,0,1064.83,576.85Zm-8.67,1.29v-6.42h1.58v-1h-1.58V570a1.46,1.46,0,0,1,.33-1,1.23,1.23,0,0,1,1-.36,3.63,3.63,0,0,1,.68.06l.07-1a3.35,3.35,0,0,0-.87-.12,2.4,2.4,0,0,0-1.8.65,2.52,2.52,0,0,0-.64,1.84v.76h-1.17v1h1.17v6.42Zm-4.86,0v-6.42h1.58v-1h-1.58V570a1.46,1.46,0,0,1,.33-1,1.23,1.23,0,0,1,1-.36,3.63,3.63,0,0,1,.68.06l.07-1a3.35,3.35,0,0,0-.87-.12,2.4,2.4,0,0,0-1.8.65A2.52,2.52,0,0,0,1050,570v.76h-1.17v1H1050v6.42Zm-8.36-5.75a1.82,1.82,0,0,1,1.51-.75,1.84,1.84,0,0,1,1.53.76,3.16,3.16,0,0,1,.58,2,3.46,3.46,0,0,1-.57,2.12,1.93,1.93,0,0,1-3.06,0,3.16,3.16,0,0,1-.57-2A3.43,3.43,0,0,1,1042.94,572.4Zm-1.85,2.07a4,4,0,0,0,.93,2.77,3.11,3.11,0,0,0,2.44,1,3.28,3.28,0,0,0,1.77-.48,3.14,3.14,0,0,0,1.18-1.34,4.4,4.4,0,0,0,.41-1.94v-.09a4,4,0,0,0-.93-2.78,3.12,3.12,0,0,0-2.44-1,3.24,3.24,0,0,0-1.74.47,3.19,3.19,0,0,0-1.19,1.34,4.37,4.37,0,0,0-.43,2Zm-9.6-2.07a1.82,1.82,0,0,1,1.51-.75,1.84,1.84,0,0,1,1.53.76,3.16,3.16,0,0,1,.58,2,3.46,3.46,0,0,1-.57,2.12,1.93,1.93,0,0,1-3.06,0,3.16,3.16,0,0,1-.57-2A3.43,3.43,0,0,1,1031.49,572.4Zm-1.85,2.07a4,4,0,0,0,.93,2.77,3.11,3.11,0,0,0,2.44,1,3.28,3.28,0,0,0,1.77-.48,3.14,3.14,0,0,0,1.18-1.34,4.4,4.4,0,0,0,.41-1.94v-.09a4,4,0,0,0-.93-2.78,3.12,3.12,0,0,0-2.44-1,3.24,3.24,0,0,0-1.74.47,3.19,3.19,0,0,0-1.19,1.34,4.37,4.37,0,0,0-.43,2ZM1026,569v1.79h-1.35v1H1026v4.59a2.2,2.2,0,0,0,.43,1.46,1.58,1.58,0,0,0,1.28.51,3.7,3.7,0,0,0,1-.14v-1a3.06,3.06,0,0,1-.6.08.78.78,0,0,1-.63-.22,1,1,0,0,1-.18-.67v-4.59h1.38v-1h-1.38V569Zm-7.26,8a2,2,0,0,1-1.15.29,2,2,0,0,1-1.25-.37,1.31,1.31,0,0,1-.51-1h-1.26a2.12,2.12,0,0,0,.39,1.22,2.56,2.56,0,0,0,1.07.88,3.73,3.73,0,0,0,1.57.31,3.33,3.33,0,0,0,2.06-.6,1.89,1.89,0,0,0,.79-1.59,1.74,1.74,0,0,0-.28-1,2.23,2.23,0,0,0-.87-.71,6.82,6.82,0,0,0-1.53-.51,4.46,4.46,0,0,1-1.31-.44.77.77,0,0,1-.36-.69,1,1,0,0,1,.39-.79,1.73,1.73,0,0,1,1.08-.3,1.65,1.65,0,0,1,1.11.38,1.14,1.14,0,0,1,.44.9h1.27a2.06,2.06,0,0,0-.78-1.66,3.09,3.09,0,0,0-2-.65,3,3,0,0,0-2,.63,1.92,1.92,0,0,0-.77,1.54,1.63,1.63,0,0,0,.27.94,2.17,2.17,0,0,0,.83.68,6.37,6.37,0,0,0,1.52.49,3.72,3.72,0,0,1,1.35.49.93.93,0,0,1,.39.8A.89.89,0,0,1,1018.73,577Zm-10-.11a1.15,1.15,0,0,1-.4-.93q0-1.36,2.32-1.36h1v1.52a1.86,1.86,0,0,1-.77.8,2.22,2.22,0,0,1-1.13.31A1.52,1.52,0,0,1,1008.7,576.85Zm4.44,1.3V578a4.16,4.16,0,0,1-.26-1.62V573a2.31,2.31,0,0,0-.75-1.76,2.92,2.92,0,0,0-2-.64,3.58,3.58,0,0,0-1.48.3,2.68,2.68,0,0,0-1.07.82,1.74,1.74,0,0,0-.39,1.07h1.27a1,1,0,0,1,.46-.83,1.84,1.84,0,0,1,1.13-.34,1.59,1.59,0,0,1,1.17.39,1.42,1.42,0,0,1,.4,1.06v.58h-1.23a4.14,4.14,0,0,0-2.47.64,2.09,2.09,0,0,0-.88,1.79,2,2,0,0,0,.7,1.57,2.61,2.61,0,0,0,1.79.62,2.82,2.82,0,0,0,2.11-.92,2.66,2.66,0,0,0,.18.78Zm-12.34-10.5h-1.26v10.5h1.26v-5.27a2.23,2.23,0,0,1,.72-.86,1.83,1.83,0,0,1,1.08-.33,1.46,1.46,0,0,1,1.12.38,1.7,1.7,0,0,1,.37,1.18v4.89h1.26v-4.89q0-2.65-2.37-2.65a2.69,2.69,0,0,0-2.19,1Zm-8,4.54a2.41,2.41,0,0,1,.52,1.49v.1h-3.71a2.71,2.71,0,0,1,.64-1.56,1.69,1.69,0,0,1,1.29-.56A1.59,1.59,0,0,1,992.82,572.18Zm1.69,4.67-.77-.6a2.85,2.85,0,0,1-.81.72,2.2,2.2,0,0,1-1.13.27,2,2,0,0,1-1.56-.67,2.63,2.63,0,0,1-.64-1.77h5v-.53a4.11,4.11,0,0,0-.8-2.72,2.77,2.77,0,0,0-2.24-1,3,3,0,0,0-1.64.49,3.28,3.28,0,0,0-1.18,1.35,4.44,4.44,0,0,0-.42,2v.23a3.67,3.67,0,0,0,.94,2.64,3.23,3.23,0,0,0,2.45,1A3.11,3.11,0,0,0,994.51,576.85Zm-10-7.9v1.79h-1.35v1h1.35v4.59a2.2,2.2,0,0,0,.43,1.46,1.58,1.58,0,0,0,1.28.51,3.7,3.7,0,0,0,1-.14v-1a3.06,3.06,0,0,1-.6.08A.78.78,0,0,1,986,577a1,1,0,0,1-.18-.67v-4.59h1.38v-1H985.8V569Zm-3.65.34a.72.72,0,0,0,.56.21.68.68,0,0,0,.75-.72.75.75,0,0,0-.19-.52.72.72,0,0,0-.56-.21.71.71,0,0,0-.56.21.75.75,0,0,0-.19.52A.73.73,0,0,0,980.88,569.3Zm1.18,1.45h-1.26v7.4h1.26ZM977.34,577a2,2,0,0,1-1.15.29,2,2,0,0,1-1.25-.37,1.31,1.31,0,0,1-.51-1h-1.26a2.12,2.12,0,0,0,.39,1.22,2.56,2.56,0,0,0,1.07.88,3.73,3.73,0,0,0,1.57.31,3.33,3.33,0,0,0,2.06-.6,1.89,1.89,0,0,0,.79-1.59,1.74,1.74,0,0,0-.28-1,2.23,2.23,0,0,0-.87-.71,6.82,6.82,0,0,0-1.53-.51,4.46,4.46,0,0,1-1.31-.44.77.77,0,0,1-.36-.69,1,1,0,0,1,.39-.79,1.73,1.73,0,0,1,1.08-.3,1.65,1.65,0,0,1,1.11.38,1.14,1.14,0,0,1,.44.9H979a2.06,2.06,0,0,0-.78-1.66,3.09,3.09,0,0,0-2-.65,3,3,0,0,0-2,.63,1.92,1.92,0,0,0-.77,1.54,1.63,1.63,0,0,0,.27.94,2.17,2.17,0,0,0,.83.68,6.37,6.37,0,0,0,1.52.49,3.72,3.72,0,0,1,1.35.49.93.93,0,0,1,.39.8A.89.89,0,0,1,977.34,577Zm-7.24-.45a1.64,1.64,0,0,1-1.42.7,1.91,1.91,0,0,1-1.81-1.16v-3.2a1.86,1.86,0,0,1,1.8-1.16,1.65,1.65,0,0,1,1.44.7,3.42,3.42,0,0,1,.5,2A3.63,3.63,0,0,1,970.1,576.5Zm1.77-2.08a4.53,4.53,0,0,0-.77-2.79,2.5,2.5,0,0,0-2.12-1,2.56,2.56,0,0,0-2.11,1v-3.92h-1.26v10.5h1.16l.06-.85a2.58,2.58,0,0,0,2.17,1,2.49,2.49,0,0,0,2.09-1,4.4,4.4,0,0,0,.78-2.72Zm-9.51-2.24a2.41,2.41,0,0,1,.52,1.49v.1h-3.71a2.71,2.71,0,0,1,.64-1.56,1.69,1.69,0,0,1,1.29-.56A1.59,1.59,0,0,1,962.36,572.18Zm1.69,4.67-.77-.6a2.85,2.85,0,0,1-.81.72,2.2,2.2,0,0,1-1.13.27,2,2,0,0,1-1.56-.67,2.63,2.63,0,0,1-.64-1.77h5v-.53a4.11,4.11,0,0,0-.8-2.72,2.77,2.77,0,0,0-2.24-1,3,3,0,0,0-1.64.49,3.28,3.28,0,0,0-1.18,1.35,4.44,4.44,0,0,0-.42,2v.23a3.67,3.67,0,0,0,.94,2.64,3.23,3.23,0,0,0,2.45,1A3.11,3.11,0,0,0,964.05,576.85Zm-11.59-6.1h-1l-1.72,5.54-1.46-5.54H947l2.15,7.4h1l1.75-5.61,1.8,5.61h1l2.15-7.4h-1.26l-1.42,5.65Zm-14.31,0h-1.38l2.64,7.31-.28.75a1.88,1.88,0,0,1-.59,1,1.68,1.68,0,0,1-1,.26l-.34,0v1l.47.09.24,0q1.5,0,2.19-1.85l3-8.54h-1.35L940,576.29Zm-12.85,0v7.4h1.26v-5.4a1.69,1.69,0,0,1,1.7-1.06,1.41,1.41,0,0,1,1.58,1.61v4.85h1.27v-4.91a1.71,1.71,0,0,1,.54-1.13,1.68,1.68,0,0,1,1.17-.42,1.59,1.59,0,0,1,1.22.39,1.7,1.7,0,0,1,.36,1.19v4.88h1.26v-5q0-2.58-2.47-2.58a2.84,2.84,0,0,0-1.4.33,2.8,2.8,0,0,0-1,.86,2.11,2.11,0,0,0-2.11-1.19,2.73,2.73,0,0,0-2.19,1l0-.82Zm-5.48-3.1h-1.26v10.5h1.26Zm-3.4,0h-1.26v10.5h1.26Zm-7.54,9.2a1.15,1.15,0,0,1-.4-.93q0-1.36,2.32-1.36h1v1.52a1.86,1.86,0,0,1-.77.8,2.22,2.22,0,0,1-1.13.31A1.52,1.52,0,0,1,908.88,576.85Zm4.44,1.3V578a4.16,4.16,0,0,1-.26-1.62V573a2.31,2.31,0,0,0-.75-1.76,2.92,2.92,0,0,0-2-.64,3.58,3.58,0,0,0-1.48.3,2.69,2.69,0,0,0-1.07.82,1.74,1.74,0,0,0-.39,1.07h1.27a1,1,0,0,1,.46-.83,1.84,1.84,0,0,1,1.13-.34,1.59,1.59,0,0,1,1.17.39,1.42,1.42,0,0,1,.4,1.06v.58h-1.23a4.14,4.14,0,0,0-2.47.64,2.09,2.09,0,0,0-.88,1.79,2,2,0,0,0,.7,1.57,2.61,2.61,0,0,0,1.79.62,2.82,2.82,0,0,0,2.11-.92,2.66,2.66,0,0,0,.18.78Zm-12.61-6a2.41,2.41,0,0,1,.52,1.49v.1h-3.71a2.71,2.71,0,0,1,.64-1.56,1.69,1.69,0,0,1,1.29-.56A1.59,1.59,0,0,1,900.72,572.18Zm1.69,4.67-.77-.6a2.85,2.85,0,0,1-.81.72,2.2,2.2,0,0,1-1.13.27,2,2,0,0,1-1.56-.67,2.63,2.63,0,0,1-.64-1.77h5v-.53a4.11,4.11,0,0,0-.8-2.72,2.77,2.77,0,0,0-2.24-1,3,3,0,0,0-1.64.49,3.28,3.28,0,0,0-1.18,1.35,4.44,4.44,0,0,0-.42,2v.23a3.67,3.67,0,0,0,.94,2.64,3.23,3.23,0,0,0,2.45,1A3.11,3.11,0,0,0,902.41,576.85Zm-6.89-6.15a1.29,1.29,0,0,0-.56-.1,2,2,0,0,0-1.76,1l0-.85h-1.23v7.4h1.26v-5.25a1.67,1.67,0,0,1,1.69-1.06,3.81,3.81,0,0,1,.62,0Zm-10,1.69a1.82,1.82,0,0,1,1.51-.75,1.84,1.84,0,0,1,1.53.76,3.16,3.16,0,0,1,.58,2,3.46,3.46,0,0,1-.57,2.12,1.93,1.93,0,0,1-3.06,0,3.16,3.16,0,0,1-.57-2A3.43,3.43,0,0,1,885.47,572.4Zm-1.85,2.07a4,4,0,0,0,.93,2.77,3.11,3.11,0,0,0,2.44,1,3.28,3.28,0,0,0,1.77-.48,3.14,3.14,0,0,0,1.18-1.34,4.4,4.4,0,0,0,.41-1.94v-.09a4,4,0,0,0-.93-2.78,3.12,3.12,0,0,0-2.44-1,3.24,3.24,0,0,0-1.74.47,3.19,3.19,0,0,0-1.19,1.34,4.37,4.37,0,0,0-.43,2Zm-1.69-6.82h-1.26v10.5h1.26Zm-4.78,8.88a1.71,1.71,0,0,1-1.45.72,1.86,1.86,0,0,1-1.74-1V572.7a1.86,1.86,0,0,1,1.72-1,1.72,1.72,0,0,1,1.46.72,3.27,3.27,0,0,1,.53,2A3.57,3.57,0,0,1,877.16,576.53Zm1.8-2.12a4.48,4.48,0,0,0-.78-2.8,2.52,2.52,0,0,0-2.11-1,2.6,2.6,0,0,0-2.15,1l-.06-.82h-1.16V581H874v-3.56a2.71,2.71,0,0,0,2.12.85,2.48,2.48,0,0,0,2.09-1,4.43,4.43,0,0,0,.77-2.72Zm-12.33-3.66h-1.46l2.42,3.66-2.5,3.74h1.47l1.71-2.77,1.71,2.77h1.46l-2.5-3.74,2.42-3.66h-1.48l-1.64,2.7Zm-4.11,1.43a2.41,2.41,0,0,1,.52,1.49v.1h-3.71a2.71,2.71,0,0,1,.64-1.56,1.69,1.69,0,0,1,1.29-.56A1.59,1.59,0,0,1,862.52,572.18Zm1.69,4.67-.77-.6a2.85,2.85,0,0,1-.81.72,2.2,2.2,0,0,1-1.13.27,2,2,0,0,1-1.56-.67,2.63,2.63,0,0,1-.64-1.77h5v-.53a4.11,4.11,0,0,0-.8-2.72,2.77,2.77,0,0,0-2.24-1,3,3,0,0,0-1.64.49,3.28,3.28,0,0,0-1.18,1.35,4.44,4.44,0,0,0-.42,2v.23a3.67,3.67,0,0,0,.94,2.64,3.23,3.23,0,0,0,2.45,1A3.11,3.11,0,0,0,864.21,576.85Zm-12.57-4.67a2.41,2.41,0,0,1,.52,1.49v.1h-3.71a2.71,2.71,0,0,1,.64-1.56,1.69,1.69,0,0,1,1.29-.56A1.59,1.59,0,0,1,851.64,572.18Zm1.69,4.67-.77-.6a2.85,2.85,0,0,1-.81.72,2.2,2.2,0,0,1-1.13.27,2,2,0,0,1-1.56-.67,2.63,2.63,0,0,1-.64-1.77h5v-.53a4.11,4.11,0,0,0-.8-2.72,2.77,2.77,0,0,0-2.24-1,3,3,0,0,0-1.64.49,3.28,3.28,0,0,0-1.18,1.35,4.44,4.44,0,0,0-.42,2v.23a3.67,3.67,0,0,0,.94,2.64,3.23,3.23,0,0,0,2.45,1A3.11,3.11,0,0,0,853.33,576.85Zm-9.2.11a2,2,0,0,1-1.15.29,2,2,0,0,1-1.25-.37,1.31,1.31,0,0,1-.51-1h-1.26a2.12,2.12,0,0,0,.39,1.22,2.56,2.56,0,0,0,1.07.88,3.73,3.73,0,0,0,1.57.31,3.33,3.33,0,0,0,2.06-.6,1.89,1.89,0,0,0,.79-1.59,1.74,1.74,0,0,0-.28-1,2.23,2.23,0,0,0-.87-.71,6.82,6.82,0,0,0-1.53-.51,4.46,4.46,0,0,1-1.31-.44.77.77,0,0,1-.36-.69,1,1,0,0,1,.39-.79,1.73,1.73,0,0,1,1.08-.3A1.65,1.65,0,0,1,844,572a1.14,1.14,0,0,1,.44.9h1.27a2.06,2.06,0,0,0-.78-1.66,3.09,3.09,0,0,0-2-.65,3,3,0,0,0-2,.63,1.92,1.92,0,0,0-.77,1.54,1.63,1.63,0,0,0,.27.94,2.17,2.17,0,0,0,.83.68,6.37,6.37,0,0,0,1.52.49,3.72,3.72,0,0,1,1.35.49.93.93,0,0,1,.39.8A.89.89,0,0,1,844.12,577Zm-10-.11a1.15,1.15,0,0,1-.4-.93q0-1.36,2.32-1.36h1v1.52a1.86,1.86,0,0,1-.77.8,2.22,2.22,0,0,1-1.13.31A1.52,1.52,0,0,1,834.09,576.85Zm4.44,1.3V578a4.16,4.16,0,0,1-.26-1.62V573a2.31,2.31,0,0,0-.75-1.76,2.92,2.92,0,0,0-2-.64,3.58,3.58,0,0,0-1.48.3,2.69,2.69,0,0,0-1.07.82,1.74,1.74,0,0,0-.39,1.07h1.27a1,1,0,0,1,.46-.83,1.84,1.84,0,0,1,1.13-.34,1.59,1.59,0,0,1,1.17.39,1.42,1.42,0,0,1,.4,1.06v.58h-1.23a4.14,4.14,0,0,0-2.47.64,2.09,2.09,0,0,0-.88,1.79,2,2,0,0,0,.7,1.57,2.61,2.61,0,0,0,1.79.62,2.82,2.82,0,0,0,2.11-.92,2.66,2.66,0,0,0,.18.78Zm-9.14-6a2.41,2.41,0,0,1,.52,1.49v.1H826.2a2.71,2.71,0,0,1,.64-1.56,1.69,1.69,0,0,1,1.29-.56A1.59,1.59,0,0,1,829.39,572.18Zm1.69,4.67-.77-.6a2.85,2.85,0,0,1-.81.72,2.2,2.2,0,0,1-1.13.27,2,2,0,0,1-1.56-.67,2.63,2.63,0,0,1-.64-1.77h5v-.53a4.11,4.11,0,0,0-.8-2.72,2.77,2.77,0,0,0-2.24-1,3,3,0,0,0-1.64.49,3.28,3.28,0,0,0-1.18,1.35,4.44,4.44,0,0,0-.42,2v.23a3.67,3.67,0,0,0,.94,2.64,3.23,3.23,0,0,0,2.45,1A3.11,3.11,0,0,0,831.08,576.85Zm-7.88-9.21h-1.26v10.5h1.26Zm-8.7,1.62h2.43a2.21,2.21,0,0,1,1.54.55,1.88,1.88,0,0,1,.56,1.42,1.82,1.82,0,0,1-.56,1.43,2.36,2.36,0,0,1-1.61.5H814.5Zm2.34,5a3.85,3.85,0,0,0,2.59-.78,2.79,2.79,0,0,0,.91-2.23,2.83,2.83,0,0,0-.93-2.21,3.69,3.69,0,0,0-2.56-.83h-3.67v10h1.31v-3.9Z" transform="translate(-710 -481)" style="fill:#398bcb"/><path d="M769,481l-29.5,59L769,599l-44.83-59Zm0,0-59,59,59,59-44.83-59Zm426.83,59L1151,481l29.5,59L1151,599ZM1151,599l59-59-59-59,44.83,59Zm-6.86-76.32h-13.5v9.19h15.84v5.65h-22.87V503.4h22.83v5.7h-15.8v8.13h13.5Zm-53.39-19.29,8.77,24.75,8.72-24.75h9.23v34.13h-7.05v-9.33l.7-16.1-9.21,25.43h-4.83l-9.19-25.41.7,16.08v9.33h-7V503.4Zm-21.42,16.29q0-5.37-1.92-8.16a6.79,6.79,0,0,0-10.95,0q-1.92,2.75-1.95,8.07v1.66q0,5.23,1.92,8.11a6.73,6.73,0,0,0,11,.11q1.9-2.78,1.92-8.1Zm7.13,1.55a20.6,20.6,0,0,1-1.78,8.84,13.41,13.41,0,0,1-5.1,5.86,15.06,15.06,0,0,1-15.18,0,13.55,13.55,0,0,1-5.16-5.82,20,20,0,0,1-1.85-8.71v-1.69a20.49,20.49,0,0,1,1.82-8.87,13.52,13.52,0,0,1,5.13-5.88,15,15,0,0,1,15.16,0,13.52,13.52,0,0,1,5.13,5.88,20.43,20.43,0,0,1,1.82,8.85Zm-34.17,16.29h-7V522.9h-13.71v14.63h-7V503.4h7v13.83h13.71V503.4h7Zm-46.2-14.84h-13.5v9.19h15.84v5.65H975.55V503.4h22.83v5.7h-15.8v8.13h13.5ZM942.69,503.4l8.77,24.75,8.72-24.75h9.23v34.13h-7.05v-9.33l.7-16.1-9.21,25.43H949l-9.19-25.41.7,16.08v9.33h-7V503.4Zm-21.42,16.29q0-5.37-1.92-8.16a6.79,6.79,0,0,0-10.95,0q-1.92,2.75-1.95,8.07v1.66q0,5.23,1.92,8.11a6.73,6.73,0,0,0,11,.11q1.9-2.78,1.92-8.1Zm7.13,1.55a20.6,20.6,0,0,1-1.78,8.84,13.41,13.41,0,0,1-5.1,5.86,15.06,15.06,0,0,1-15.18,0,13.55,13.55,0,0,1-5.16-5.82,20,20,0,0,1-1.85-8.71v-1.69a20.49,20.49,0,0,1,1.82-8.87,13.52,13.52,0,0,1,5.13-5.88,15,15,0,0,1,15.16,0,13.52,13.52,0,0,1,5.13,5.88,20.43,20.43,0,0,1,1.82,8.85Zm-32.65,4.92a12.08,12.08,0,0,1-4.07,8.67Q888,538,882,538q-6.56,0-10.32-4.42t-3.76-12.13v-2.09a20.46,20.46,0,0,1,1.73-8.67,13,13,0,0,1,5-5.75,15.49,15.49,0,0,1,17,1.16,13,13,0,0,1,4.17,8.88h-7a7.13,7.13,0,0,0-1.84-4.79,6.81,6.81,0,0,0-4.82-1.49,6,6,0,0,0-5.26,2.52q-1.75,2.52-1.79,7.82v2.58q0,5.53,1.68,8.09a5.86,5.86,0,0,0,5.29,2.55,6.94,6.94,0,0,0,4.86-1.49,6.72,6.72,0,0,0,1.84-4.61Zm-44.25,5.72h14.93v5.65h-22V503.4h7ZM838,522.68H824.5v9.19h15.84v5.65H817.47V503.4h22.83v5.7H824.5v8.13H838Zm-35.93,5,4.59-24.28h7l-7.57,34.13H799l-5.55-22.83-5.55,22.83h-7.08l-7.57-34.12h7l4.62,24.23,5.63-24.23h6Zm303.3,33a.79.79,0,0,1,.19-.55.74.74,0,0,1,.58-.22.76.76,0,0,1,.59.22.78.78,0,0,1,.2.55.73.73,0,0,1-.2.53.78.78,0,0,1-.59.21.76.76,0,0,1-.58-.21A.75.75,0,0,1,1105.36,560.67Zm-.35-5.6a3.81,3.81,0,0,0-.62,0,1.67,1.67,0,0,0-1.69,1.06v5.25h-1.26v-7.4h1.23l0,.85a2,2,0,0,1,1.76-1,1.29,1.29,0,0,1,.56.1Zm-8.08-.23a1.69,1.69,0,0,0-1.29.56A2.71,2.71,0,0,0,1095,557h3.71v-.1a2.41,2.41,0,0,0-.52-1.49A1.59,1.59,0,0,0,1096.93,554.84Zm.16,6.63a3.23,3.23,0,0,1-2.45-1,3.67,3.67,0,0,1-.94-2.64v-.23a4.44,4.44,0,0,1,.42-2,3.28,3.28,0,0,1,1.18-1.35,3,3,0,0,1,1.64-.49,2.77,2.77,0,0,1,2.24,1,4.11,4.11,0,0,1,.8,2.72V558h-5a2.63,2.63,0,0,0,.64,1.77,2,2,0,0,0,1.56.67,2.2,2.2,0,0,0,1.13-.27,2.85,2.85,0,0,0,.81-.72l.77.6A3.11,3.11,0,0,1,1097.09,561.47Zm-9.6-7.53,0,.93a2.69,2.69,0,0,1,2.21-1.07q2.34,0,2.37,2.65v4.89h-1.26v-4.89a1.7,1.7,0,0,0-.37-1.18,1.46,1.46,0,0,0-1.12-.38,1.83,1.83,0,0,0-1.08.33,2.23,2.23,0,0,0-.72.86v5.27h-1.26v-7.4Zm-8.08,3.78a3.32,3.32,0,0,0,.51,2,1.67,1.67,0,0,0,1.44.71,1.85,1.85,0,0,0,1.76-1.09v-3.38a1.87,1.87,0,0,0-1.74-1.06,1.68,1.68,0,0,0-1.44.72A3.61,3.61,0,0,0,1079.41,557.72Zm-1.27-.14a4.35,4.35,0,0,1,.8-2.75,2.76,2.76,0,0,1,4.23-.06l.06-.82h1.16v7.22a3,3,0,0,1-.85,2.26,3.14,3.14,0,0,1-2.29.83,3.8,3.8,0,0,1-1.57-.34,2.7,2.7,0,0,1-1.17-.94l.66-.76a2.47,2.47,0,0,0,2,1,1.94,1.94,0,0,0,1.44-.52,2,2,0,0,0,.52-1.46v-.64a2.6,2.6,0,0,1-2.07.88,2.53,2.53,0,0,1-2.1-1A4.57,4.57,0,0,1,1078.14,557.57Zm-3.09-5.6a.75.75,0,0,1,.19-.52.71.71,0,0,1,.56-.21.72.72,0,0,1,.56.21.75.75,0,0,1,.19.52.75.75,0,1,1-1.5,0Zm1.37,9.36h-1.26v-7.4h1.26Zm-4.29-2a.93.93,0,0,0-.39-.8,3.72,3.72,0,0,0-1.35-.49,6.37,6.37,0,0,1-1.52-.49,2.17,2.17,0,0,1-.83-.68,1.63,1.63,0,0,1-.27-.94,1.92,1.92,0,0,1,.77-1.54,3,3,0,0,1,2-.63,3.09,3.09,0,0,1,2,.65,2.06,2.06,0,0,1,.78,1.66h-1.27a1.14,1.14,0,0,0-.44-.9,1.65,1.65,0,0,0-1.11-.38,1.73,1.73,0,0,0-1.08.3,1,1,0,0,0-.39.79.77.77,0,0,0,.36.69,4.46,4.46,0,0,0,1.31.44,6.82,6.82,0,0,1,1.53.51,2.23,2.23,0,0,1,.87.71,1.74,1.74,0,0,1,.28,1,1.89,1.89,0,0,1-.79,1.59,3.33,3.33,0,0,1-2.06.6,3.73,3.73,0,0,1-1.57-.31,2.56,2.56,0,0,1-1.07-.88,2.12,2.12,0,0,1-.39-1.22h1.26a1.31,1.31,0,0,0,.51,1,2,2,0,0,0,1.25.37,2,2,0,0,0,1.15-.29A.89.89,0,0,0,1072.13,559.37Zm-8.81-4.53a1.69,1.69,0,0,0-1.29.56,2.71,2.71,0,0,0-.64,1.56h3.71v-.1a2.41,2.41,0,0,0-.52-1.49A1.59,1.59,0,0,0,1063.32,554.84Zm.16,6.63a3.23,3.23,0,0,1-2.45-1,3.67,3.67,0,0,1-.94-2.64v-.23a4.44,4.44,0,0,1,.42-2,3.28,3.28,0,0,1,1.18-1.35,3,3,0,0,1,1.64-.49,2.77,2.77,0,0,1,2.24,1,4.11,4.11,0,0,1,.8,2.72V558h-5a2.63,2.63,0,0,0,.64,1.77,2,2,0,0,0,1.56.67,2.2,2.2,0,0,0,1.13-.27,2.85,2.85,0,0,0,.81-.72l.77.6A3.11,3.11,0,0,1,1063.48,561.47Zm-10-3.75a3.28,3.28,0,0,0,.52,2,1.68,1.68,0,0,0,1.44.71,1.84,1.84,0,0,0,1.76-1.08v-3.4a1.86,1.86,0,0,0-1.74-1,1.69,1.69,0,0,0-1.45.72A3.61,3.61,0,0,0,1053.47,557.72Zm-1.26-.14a4.33,4.33,0,0,1,.81-2.74,2.74,2.74,0,0,1,4.17-.15v-3.86h1.26v10.5h-1.16l-.06-.79a2.58,2.58,0,0,1-2.11.93,2.53,2.53,0,0,1-2.1-1.05,4.38,4.38,0,0,1-.81-2.75Zm-10-4a2.87,2.87,0,0,0,.81,1.64l.81-.57a2.14,2.14,0,0,0,.64-.63,1.43,1.43,0,0,0,.17-.72,1,1,0,0,0-.34-.76,1.25,1.25,0,0,0-.86-.3,1.11,1.11,0,0,0-.89.38A1.42,1.42,0,0,0,1042.16,553.62Zm1.14,6.82a2.66,2.66,0,0,0,1.84-.77l-2.43-2.91-.23.16a2.28,2.28,0,0,0-1.14,1.73,1.68,1.68,0,0,0,.52,1.29A2,2,0,0,0,1043.3,560.44Zm-3.22-1.78a2.33,2.33,0,0,1,.4-1.32,6.1,6.1,0,0,1,1.53-1.4,6.6,6.6,0,0,1-.89-1.3,2.52,2.52,0,0,1,.44-2.75,2.52,2.52,0,0,1,1.82-.64,2.45,2.45,0,0,1,1.7.6,1.93,1.93,0,0,1,.67,1.51,2.13,2.13,0,0,1-.3,1.11,4,4,0,0,1-1.06,1.07l-.73.54,2.21,2.65a4.19,4.19,0,0,0,.46-2h1.14a4.77,4.77,0,0,1-.84,2.89l1.42,1.7h-1.52l-.66-.79a3.47,3.47,0,0,1-1.19.69,4.2,4.2,0,0,1-1.38.24,3.42,3.42,0,0,1-2.34-.77A2.58,2.58,0,0,1,1040.08,558.66Zm-4.36-3.59a3.81,3.81,0,0,0-.62,0,1.67,1.67,0,0,0-1.69,1.06v5.25h-1.26v-7.4h1.23l0,.85a2,2,0,0,1,1.76-1,1.29,1.29,0,0,1,.56.1Zm-8.08-.23a1.69,1.69,0,0,0-1.29.56,2.71,2.71,0,0,0-.64,1.56h3.71v-.1a2.41,2.41,0,0,0-.52-1.49A1.59,1.59,0,0,0,1027.64,554.84Zm.16,6.63a3.23,3.23,0,0,1-2.45-1,3.67,3.67,0,0,1-.94-2.64v-.23a4.44,4.44,0,0,1,.42-2,3.28,3.28,0,0,1,1.18-1.35,3,3,0,0,1,1.64-.49,2.77,2.77,0,0,1,2.24,1,4.11,4.11,0,0,1,.8,2.72V558h-5a2.63,2.63,0,0,0,.64,1.77,2,2,0,0,0,1.56.67,2.2,2.2,0,0,0,1.13-.27,2.85,2.85,0,0,0,.81-.72l.77.6A3.11,3.11,0,0,1,1027.8,561.47Zm-5.94-3.9a3.27,3.27,0,0,0-.53-2,1.72,1.72,0,0,0-1.46-.72,1.86,1.86,0,0,0-1.72,1v3.53a1.86,1.86,0,0,0,1.74,1,1.71,1.71,0,0,0,1.45-.72A3.57,3.57,0,0,0,1021.85,557.57Zm1.26.14a4.43,4.43,0,0,1-.77,2.72,2.48,2.48,0,0,1-2.09,1,2.71,2.71,0,0,1-2.12-.85v3.56h-1.26V553.94H1018l.06.82a2.6,2.6,0,0,1,2.15-1,2.52,2.52,0,0,1,2.11,1,4.48,4.48,0,0,1,.78,2.8Zm-13.3,0a3.16,3.16,0,0,0,.57,2,1.93,1.93,0,0,0,3.06,0,3.46,3.46,0,0,0,.57-2.12,3.16,3.16,0,0,0-.58-2,1.84,1.84,0,0,0-1.53-.76,1.82,1.82,0,0,0-1.51.75A3.43,3.43,0,0,0,1009.82,557.72Zm-1.27-.15a4.37,4.37,0,0,1,.43-2,3.19,3.19,0,0,1,1.19-1.34,3.24,3.24,0,0,1,1.74-.47,3.12,3.12,0,0,1,2.44,1,4,4,0,0,1,.93,2.78v.09a4.4,4.4,0,0,1-.41,1.94,3.14,3.14,0,0,1-1.18,1.34,3.28,3.28,0,0,1-1.77.48,3.11,3.11,0,0,1-2.44-1,4,4,0,0,1-.93-2.77Zm-1.69,3.77h-1.26v-10.5h1.26Zm-5.88-6.49a1.69,1.69,0,0,0-1.29.56,2.71,2.71,0,0,0-.64,1.56h3.71v-.1a2.41,2.41,0,0,0-.52-1.49A1.59,1.59,0,0,0,1001,554.84Zm.16,6.63a3.23,3.23,0,0,1-2.45-1,3.67,3.67,0,0,1-.94-2.64v-.23a4.44,4.44,0,0,1,.42-2,3.28,3.28,0,0,1,1.18-1.35,3,3,0,0,1,1.64-.49,2.77,2.77,0,0,1,2.24,1,4.11,4.11,0,0,1,.8,2.72V558h-5a2.63,2.63,0,0,0,.64,1.77,2,2,0,0,0,1.56.67,2.2,2.2,0,0,0,1.13-.27,2.85,2.85,0,0,0,.81-.72l.77.6A3.11,3.11,0,0,1,1001.14,561.47Zm-7.32-1.85,1.83-5.68h1.29l-2.65,7.4h-1l-2.68-7.4h1.29ZM987,554.84a1.69,1.69,0,0,0-1.29.56A2.71,2.71,0,0,0,985,557h3.71v-.1a2.41,2.41,0,0,0-.52-1.49A1.59,1.59,0,0,0,987,554.84Zm.16,6.63a3.23,3.23,0,0,1-2.45-1,3.67,3.67,0,0,1-.94-2.64v-.23a4.44,4.44,0,0,1,.42-2,3.28,3.28,0,0,1,1.18-1.35,3,3,0,0,1,1.64-.49,2.77,2.77,0,0,1,2.24,1,4.11,4.11,0,0,1,.8,2.72V558h-5a2.63,2.63,0,0,0,.64,1.77,2,2,0,0,0,1.56.67,2.2,2.2,0,0,0,1.13-.27,2.85,2.85,0,0,0,.81-.72l.77.6A3.11,3.11,0,0,1,987.12,561.47Zm-10-3.75a3.28,3.28,0,0,0,.52,2,1.68,1.68,0,0,0,1.44.71,1.84,1.84,0,0,0,1.76-1.08v-3.4a1.86,1.86,0,0,0-1.74-1,1.69,1.69,0,0,0-1.45.72A3.61,3.61,0,0,0,977.11,557.72Zm-1.26-.14a4.33,4.33,0,0,1,.81-2.74,2.74,2.74,0,0,1,4.17-.15v-3.86h1.26v10.5h-1.16l-.06-.79a2.58,2.58,0,0,1-2.11.93,2.53,2.53,0,0,1-2.1-1.05,4.38,4.38,0,0,1-.81-2.75Zm-10.1.14a3.28,3.28,0,0,0,.52,2,1.68,1.68,0,0,0,1.44.71,1.84,1.84,0,0,0,1.76-1.08v-3.4a1.86,1.86,0,0,0-1.74-1,1.69,1.69,0,0,0-1.45.72A3.61,3.61,0,0,0,965.75,557.72Zm-1.26-.14a4.33,4.33,0,0,1,.81-2.74,2.74,2.74,0,0,1,4.17-.15v-3.86h1.26v10.5h-1.16l-.06-.79a2.58,2.58,0,0,1-2.11.93,2.53,2.53,0,0,1-2.1-1.05,4.38,4.38,0,0,1-.81-2.75Zm-6.22-3.64,0,.93a2.69,2.69,0,0,1,2.21-1.07q2.34,0,2.37,2.65v4.89h-1.26v-4.89a1.7,1.7,0,0,0-.37-1.18,1.46,1.46,0,0,0-1.12-.38,1.83,1.83,0,0,0-1.08.33,2.23,2.23,0,0,0-.72.86v5.27h-1.26v-7.4Zm-5.7.9a1.69,1.69,0,0,0-1.29.56,2.71,2.71,0,0,0-.64,1.56h3.71v-.1a2.41,2.41,0,0,0-.52-1.49A1.59,1.59,0,0,0,952.57,554.84Zm.16,6.63a3.23,3.23,0,0,1-2.45-1,3.67,3.67,0,0,1-.94-2.64v-.23a4.44,4.44,0,0,1,.42-2,3.28,3.28,0,0,1,1.18-1.35,3,3,0,0,1,1.64-.49,2.77,2.77,0,0,1,2.24,1,4.11,4.11,0,0,1,.8,2.72V558h-5a2.63,2.63,0,0,0,.64,1.77,2,2,0,0,0,1.56.67,2.2,2.2,0,0,0,1.13-.27,2.85,2.85,0,0,0,.81-.72l.77.6A3.11,3.11,0,0,1,952.72,561.47Zm-4.3-3.85h-3.34v-1h3.34Zm-5.49-5.48v1.79h1.38v1h-1.38v4.59a1,1,0,0,0,.18.67.78.78,0,0,0,.63.22,3.06,3.06,0,0,0,.6-.08v1a3.7,3.7,0,0,1-1,.14,1.58,1.58,0,0,1-1.28-.51,2.2,2.2,0,0,1-.43-1.46v-4.59h-1.35v-1h1.35v-1.79Zm-8.24,1.79,0,.93a2.69,2.69,0,0,1,2.21-1.07q2.34,0,2.37,2.65v4.89H938v-4.89a1.7,1.7,0,0,0-.37-1.18,1.46,1.46,0,0,0-1.12-.38,1.83,1.83,0,0,0-1.08.33,2.23,2.23,0,0,0-.72.86v5.27h-1.26v-7.4Zm-8.24,3.78a3.16,3.16,0,0,0,.57,2,1.93,1.93,0,0,0,3.06,0,3.46,3.46,0,0,0,.57-2.12,3.16,3.16,0,0,0-.58-2,1.84,1.84,0,0,0-1.53-.76,1.82,1.82,0,0,0-1.51.75A3.43,3.43,0,0,0,926.45,557.72Zm-1.27-.15a4.37,4.37,0,0,1,.43-2,3.19,3.19,0,0,1,1.19-1.34,3.24,3.24,0,0,1,1.74-.47,3.12,3.12,0,0,1,2.44,1,4,4,0,0,1,.93,2.78v.09a4.4,4.4,0,0,1-.41,1.94,3.14,3.14,0,0,1-1.18,1.34,3.28,3.28,0,0,1-1.77.48,3.11,3.11,0,0,1-2.44-1,4,4,0,0,1-.93-2.77Zm-.69-2.5a3.81,3.81,0,0,0-.62,0,1.67,1.67,0,0,0-1.69,1.06v5.25h-1.26v-7.4h1.23l0,.85a2,2,0,0,1,1.76-1,1.29,1.29,0,0,1,.56.1Zm-7.81,6.26v-6.42H915.5v-1h1.17v-.76a2.52,2.52,0,0,1,.64-1.84,2.4,2.4,0,0,1,1.8-.65,3.35,3.35,0,0,1,.87.12l-.07,1a3.63,3.63,0,0,0-.68-.06,1.23,1.23,0,0,0-1,.36,1.46,1.46,0,0,0-.33,1v.78h1.58v1h-1.58v6.42Zm-6.95-9.19v1.79h1.38v1h-1.38v4.59a1,1,0,0,0,.18.67.78.78,0,0,0,.63.22,3.06,3.06,0,0,0,.6-.08v1a3.7,3.7,0,0,1-1,.14,1.58,1.58,0,0,1-1.28-.51,2.2,2.2,0,0,1-.43-1.46v-4.59h-1.35v-1h1.35v-1.79Zm-8.16,2.69a2.69,2.69,0,0,1,2.19-1q2.34,0,2.37,2.65v4.89h-1.26v-4.89a1.7,1.7,0,0,0-.37-1.18,1.46,1.46,0,0,0-1.12-.38,1.83,1.83,0,0,0-1.08.33,2.23,2.23,0,0,0-.72.86v5.27H900.3v-10.5h1.26Zm-8.15,2.88a3.32,3.32,0,0,0,.51,2,1.67,1.67,0,0,0,1.44.71,1.85,1.85,0,0,0,1.76-1.09v-3.38a1.87,1.87,0,0,0-1.74-1.06,1.68,1.68,0,0,0-1.44.72A3.61,3.61,0,0,0,893.41,557.72Zm-1.27-.14a4.35,4.35,0,0,1,.8-2.75,2.76,2.76,0,0,1,4.23-.06l.06-.82h1.16v7.22a3,3,0,0,1-.85,2.26,3.14,3.14,0,0,1-2.29.83,3.8,3.8,0,0,1-1.57-.34,2.7,2.7,0,0,1-1.17-.94l.66-.76a2.47,2.47,0,0,0,2,1,1.94,1.94,0,0,0,1.44-.52,2,2,0,0,0,.52-1.46v-.64a2.6,2.6,0,0,1-2.07.88,2.53,2.53,0,0,1-2.1-1A4.57,4.57,0,0,1,892.14,557.57Zm-2.85,3a2.69,2.69,0,0,1-2.17.87,2.3,2.3,0,0,1-1.8-.69,3,3,0,0,1-.63-2v-4.81H886v4.78q0,1.68,1.37,1.68a1.89,1.89,0,0,0,1.93-1.08v-5.38h1.26v7.4h-1.2Zm-9.71-.23a2.22,2.22,0,0,0,1.13-.31,1.86,1.86,0,0,0,.77-.8v-1.52h-1q-2.32,0-2.32,1.36a1.15,1.15,0,0,0,.4.93A1.52,1.52,0,0,0,879.58,560.37Zm2.1,1a2.66,2.66,0,0,1-.18-.78,2.82,2.82,0,0,1-2.11.92,2.61,2.61,0,0,1-1.79-.62,2,2,0,0,1-.7-1.57,2.09,2.09,0,0,1,.88-1.79,4.14,4.14,0,0,1,2.47-.64h1.23v-.58a1.42,1.42,0,0,0-.4-1.06,1.59,1.59,0,0,0-1.17-.39,1.84,1.84,0,0,0-1.13.34,1,1,0,0,0-.46.83H877a1.74,1.74,0,0,1,.39-1.07,2.69,2.69,0,0,1,1.07-.82,3.58,3.58,0,0,1,1.48-.3,2.92,2.92,0,0,1,2,.64,2.31,2.31,0,0,1,.75,1.76v3.4a4.16,4.16,0,0,0,.26,1.62v.11Zm-7.42-9.19v1.79h1.38v1h-1.38v4.59a1,1,0,0,0,.18.67.78.78,0,0,0,.63.22,3.06,3.06,0,0,0,.6-.08v1a3.7,3.7,0,0,1-1,.14,1.58,1.58,0,0,1-1.28-.51,2.2,2.2,0,0,1-.43-1.46v-4.59h-1.35v-1H873v-1.79Zm-9.42,9.19v-6.42h-1.17v-1h1.17v-.76a2.52,2.52,0,0,1,.64-1.84,2.4,2.4,0,0,1,1.8-.65,3.35,3.35,0,0,1,.87.12l-.07,1a3.63,3.63,0,0,0-.68-.06,1.23,1.23,0,0,0-1,.36,1.46,1.46,0,0,0-.33,1v.78h1.58v1H866.1v6.42Zm-2.65,0h-1.26v-10.5h1.26Zm-5.88-6.49a1.69,1.69,0,0,0-1.29.56,2.71,2.71,0,0,0-.64,1.56h3.71v-.1a2.41,2.41,0,0,0-.52-1.49A1.59,1.59,0,0,0,856.31,554.84Zm.16,6.63a3.23,3.23,0,0,1-2.45-1,3.67,3.67,0,0,1-.94-2.64v-.23a4.44,4.44,0,0,1,.42-2,3.28,3.28,0,0,1,1.18-1.35,3,3,0,0,1,1.64-.49,2.77,2.77,0,0,1,2.24,1,4.11,4.11,0,0,1,.8,2.72V558h-5a2.63,2.63,0,0,0,.64,1.77,2,2,0,0,0,1.56.67,2.21,2.21,0,0,0,1.13-.27,2.85,2.85,0,0,0,.81-.72l.77.6A3.11,3.11,0,0,1,856.47,561.47Zm-6-2.1a.93.93,0,0,0-.39-.8,3.72,3.72,0,0,0-1.35-.49,6.37,6.37,0,0,1-1.52-.49,2.17,2.17,0,0,1-.83-.68,1.63,1.63,0,0,1-.27-.94,1.92,1.92,0,0,1,.77-1.54,3,3,0,0,1,2-.63,3.09,3.09,0,0,1,2,.65,2.06,2.06,0,0,1,.78,1.66h-1.27a1.14,1.14,0,0,0-.44-.9,1.65,1.65,0,0,0-1.11-.38,1.73,1.73,0,0,0-1.08.3,1,1,0,0,0-.39.79.77.77,0,0,0,.36.69,4.45,4.45,0,0,0,1.31.44,6.83,6.83,0,0,1,1.53.51,2.24,2.24,0,0,1,.87.71,1.74,1.74,0,0,1,.28,1,1.89,1.89,0,0,1-.79,1.59,3.33,3.33,0,0,1-2.06.6,3.73,3.73,0,0,1-1.57-.31,2.55,2.55,0,0,1-1.07-.88,2.12,2.12,0,0,1-.39-1.22h1.26a1.31,1.31,0,0,0,.51,1,2,2,0,0,0,1.25.37,2,2,0,0,0,1.15-.29A.89.89,0,0,0,850.48,559.37Zm-12.92,1a2.22,2.22,0,0,0,1.13-.31,1.86,1.86,0,0,0,.77-.8v-1.52h-1q-2.32,0-2.32,1.36a1.15,1.15,0,0,0,.4.93A1.52,1.52,0,0,0,837.56,560.37Zm2.1,1a2.65,2.65,0,0,1-.18-.78,2.82,2.82,0,0,1-2.11.92,2.61,2.61,0,0,1-1.79-.62,2,2,0,0,1-.7-1.57,2.09,2.09,0,0,1,.88-1.79,4.14,4.14,0,0,1,2.47-.64h1.23v-.58a1.42,1.42,0,0,0-.4-1.06,1.59,1.59,0,0,0-1.17-.39,1.84,1.84,0,0,0-1.13.34,1,1,0,0,0-.46.83H835a1.74,1.74,0,0,1,.39-1.07,2.68,2.68,0,0,1,1.07-.82,3.58,3.58,0,0,1,1.48-.3,2.92,2.92,0,0,1,2,.64,2.31,2.31,0,0,1,.75,1.76v3.4a4.16,4.16,0,0,0,.26,1.62v.11Zm-19.11-7.4,0,.82a2.73,2.73,0,0,1,2.19-1,2.11,2.11,0,0,1,2.11,1.19,2.8,2.8,0,0,1,1-.86,2.84,2.84,0,0,1,1.4-.33q2.43,0,2.47,2.58v5h-1.26v-4.88a1.7,1.7,0,0,0-.36-1.19,1.6,1.6,0,0,0-1.22-.39,1.68,1.68,0,0,0-1.17.42,1.7,1.7,0,0,0-.54,1.13v4.91H823.9v-4.85a1.41,1.41,0,0,0-1.58-1.61,1.69,1.69,0,0,0-1.7,1.06v5.4h-1.26v-7.4Zm-3.76.25-.72-.49a3.29,3.29,0,0,0,.66-1.87v-1H818v.89a3.38,3.38,0,0,1-1.19,2.46Zm-2.29,7.15h-1.31v-10h1.31Zm255.81,16.15a.79.79,0,0,1,.19-.55.74.74,0,0,1,.58-.22.76.76,0,0,1,.59.22.78.78,0,0,1,.2.55.73.73,0,0,1-.2.53.78.78,0,0,1-.59.21.76.76,0,0,1-.58-.21A.75.75,0,0,1,1070.32,577.48Zm-.35-5.6a3.81,3.81,0,0,0-.62,0,1.67,1.67,0,0,0-1.69,1.06v5.25h-1.26v-7.4h1.23l0,.85a2,2,0,0,1,1.76-1,1.29,1.29,0,0,1,.56.1Zm-8.08-.23a1.69,1.69,0,0,0-1.29.56,2.71,2.71,0,0,0-.64,1.56h3.71v-.1a2.41,2.41,0,0,0-.52-1.49A1.59,1.59,0,0,0,1061.89,571.65Zm.16,6.63a3.23,3.23,0,0,1-2.45-1,3.67,3.67,0,0,1-.94-2.64v-.23a4.44,4.44,0,0,1,.42-2,3.28,3.28,0,0,1,1.18-1.35,3,3,0,0,1,1.64-.49,2.77,2.77,0,0,1,2.24,1,4.11,4.11,0,0,1,.8,2.72v.53h-5a2.63,2.63,0,0,0,.64,1.77,2,2,0,0,0,1.56.67,2.2,2.2,0,0,0,1.13-.27,2.85,2.85,0,0,0,.81-.72l.77.6A3.11,3.11,0,0,1,1062,578.28Zm-7.14-.14v-6.42h-1.17v-1h1.17V570a2.52,2.52,0,0,1,.64-1.84,2.4,2.4,0,0,1,1.8-.65,3.35,3.35,0,0,1,.87.12l-.07,1a3.63,3.63,0,0,0-.68-.06,1.23,1.23,0,0,0-1,.36,1.46,1.46,0,0,0-.33,1v.78h1.58v1h-1.58v6.42Zm-4.86,0v-6.42h-1.17v-1H1050V570a2.52,2.52,0,0,1,.64-1.84,2.4,2.4,0,0,1,1.8-.65,3.35,3.35,0,0,1,.87.12l-.07,1a3.63,3.63,0,0,0-.68-.06,1.23,1.23,0,0,0-1,.36,1.46,1.46,0,0,0-.33,1v.78h1.58v1h-1.58v6.42Zm-7.67-3.62a3.16,3.16,0,0,0,.57,2,1.93,1.93,0,0,0,3.06,0,3.46,3.46,0,0,0,.57-2.12,3.16,3.16,0,0,0-.58-2,1.84,1.84,0,0,0-1.53-.76,1.82,1.82,0,0,0-1.51.75A3.43,3.43,0,0,0,1042.37,574.53Zm-1.27-.15a4.37,4.37,0,0,1,.43-2,3.19,3.19,0,0,1,1.19-1.34,3.24,3.24,0,0,1,1.74-.47,3.12,3.12,0,0,1,2.44,1,4,4,0,0,1,.93,2.78v.09a4.4,4.4,0,0,1-.41,1.94,3.14,3.14,0,0,1-1.18,1.34,3.28,3.28,0,0,1-1.77.48,3.11,3.11,0,0,1-2.44-1,4,4,0,0,1-.93-2.77Zm-10.18.15a3.16,3.16,0,0,0,.57,2,1.93,1.93,0,0,0,3.06,0,3.46,3.46,0,0,0,.57-2.12,3.16,3.16,0,0,0-.58-2,1.84,1.84,0,0,0-1.53-.76,1.82,1.82,0,0,0-1.51.75A3.43,3.43,0,0,0,1030.92,574.53Zm-1.27-.15a4.37,4.37,0,0,1,.43-2,3.19,3.19,0,0,1,1.19-1.34,3.24,3.24,0,0,1,1.74-.47,3.12,3.12,0,0,1,2.44,1,4,4,0,0,1,.93,2.78v.09a4.4,4.4,0,0,1-.41,1.94,3.14,3.14,0,0,1-1.18,1.34,3.28,3.28,0,0,1-1.77.48,3.11,3.11,0,0,1-2.44-1,4,4,0,0,1-.93-2.77Zm-2.39-5.42v1.79h1.38v1h-1.38v4.59a1,1,0,0,0,.18.67.78.78,0,0,0,.63.22,3.06,3.06,0,0,0,.6-.08v1a3.7,3.7,0,0,1-1,.14,1.58,1.58,0,0,1-1.28-.51,2.2,2.2,0,0,1-.43-1.46v-4.59h-1.35v-1H1026V569Zm-8.09,7.23a.93.93,0,0,0-.39-.8,3.72,3.72,0,0,0-1.35-.49,6.37,6.37,0,0,1-1.52-.49,2.17,2.17,0,0,1-.83-.68,1.63,1.63,0,0,1-.27-.94,1.92,1.92,0,0,1,.77-1.54,3,3,0,0,1,2-.63,3.09,3.09,0,0,1,2,.65,2.06,2.06,0,0,1,.78,1.66h-1.27a1.14,1.14,0,0,0-.44-.9,1.65,1.65,0,0,0-1.11-.38,1.73,1.73,0,0,0-1.08.3,1,1,0,0,0-.39.79.77.77,0,0,0,.36.69,4.46,4.46,0,0,0,1.31.44,6.82,6.82,0,0,1,1.53.51,2.23,2.23,0,0,1,.87.71,1.74,1.74,0,0,1,.28,1,1.89,1.89,0,0,1-.79,1.59,3.33,3.33,0,0,1-2.06.6A3.73,3.73,0,0,1,1016,578a2.56,2.56,0,0,1-1.07-.88,2.12,2.12,0,0,1-.39-1.22h1.26a1.31,1.31,0,0,0,.51,1,2,2,0,0,0,1.25.37,2,2,0,0,0,1.15-.29A.89.89,0,0,0,1019.17,576.18Zm-9.45,1a2.22,2.22,0,0,0,1.13-.31,1.86,1.86,0,0,0,.77-.8v-1.52h-1q-2.32,0-2.32,1.36a1.15,1.15,0,0,0,.4.93A1.52,1.52,0,0,0,1009.71,577.18Zm2.1,1a2.66,2.66,0,0,1-.18-.78,2.82,2.82,0,0,1-2.11.92,2.61,2.61,0,0,1-1.79-.62,2,2,0,0,1-.7-1.57,2.09,2.09,0,0,1,.88-1.79,4.14,4.14,0,0,1,2.47-.64h1.23v-.58a1.42,1.42,0,0,0-.4-1.06,1.59,1.59,0,0,0-1.17-.39,1.84,1.84,0,0,0-1.13.34,1,1,0,0,0-.46.83h-1.27a1.74,1.74,0,0,1,.39-1.07,2.68,2.68,0,0,1,1.07-.82,3.58,3.58,0,0,1,1.48-.3,2.92,2.92,0,0,1,2,.64,2.31,2.31,0,0,1,.75,1.76v3.4a4.16,4.16,0,0,0,.26,1.62v.11Zm-11-6.5a2.69,2.69,0,0,1,2.19-1q2.34,0,2.37,2.65v4.89h-1.26v-4.89a1.7,1.7,0,0,0-.37-1.18,1.46,1.46,0,0,0-1.12-.38,1.83,1.83,0,0,0-1.08.33,2.23,2.23,0,0,0-.72.86v5.27h-1.26v-10.5h1.26Zm-9.24,0a1.69,1.69,0,0,0-1.29.56,2.71,2.71,0,0,0-.64,1.56h3.71v-.1a2.41,2.41,0,0,0-.52-1.49A1.59,1.59,0,0,0,991.57,571.65Zm.16,6.63a3.23,3.23,0,0,1-2.45-1,3.67,3.67,0,0,1-.94-2.64v-.23a4.44,4.44,0,0,1,.42-2,3.28,3.28,0,0,1,1.18-1.35,3,3,0,0,1,1.64-.49,2.77,2.77,0,0,1,2.24,1,4.11,4.11,0,0,1,.8,2.72v.53h-5a2.63,2.63,0,0,0,.64,1.77,2,2,0,0,0,1.56.67,2.2,2.2,0,0,0,1.13-.27,2.85,2.85,0,0,0,.81-.72l.77.6A3.11,3.11,0,0,1,991.72,578.28ZM985.8,569v1.79h1.38v1H985.8v4.59a1,1,0,0,0,.18.67.78.78,0,0,0,.63.22,3.06,3.06,0,0,0,.6-.08v1a3.7,3.7,0,0,1-1,.14,1.58,1.58,0,0,1-1.28-.51,2.2,2.2,0,0,1-.43-1.46v-4.59h-1.35v-1h1.35V569Zm-5.11-.17a.75.75,0,0,1,.19-.52.71.71,0,0,1,.56-.21.72.72,0,0,1,.56.21.75.75,0,0,1,.19.52.75.75,0,1,1-1.5,0Zm1.37,9.36h-1.26v-7.4h1.26Zm-4.29-2a.93.93,0,0,0-.39-.8,3.72,3.72,0,0,0-1.35-.49,6.37,6.37,0,0,1-1.52-.49,2.17,2.17,0,0,1-.83-.68,1.63,1.63,0,0,1-.27-.94,1.92,1.92,0,0,1,.77-1.54,3,3,0,0,1,2-.63,3.09,3.09,0,0,1,2,.65,2.06,2.06,0,0,1,.78,1.66H977.7a1.14,1.14,0,0,0-.44-.9,1.65,1.65,0,0,0-1.11-.38,1.73,1.73,0,0,0-1.08.3,1,1,0,0,0-.39.79.77.77,0,0,0,.36.69,4.46,4.46,0,0,0,1.31.44,6.82,6.82,0,0,1,1.53.51,2.23,2.23,0,0,1,.87.71,1.74,1.74,0,0,1,.28,1,1.89,1.89,0,0,1-.79,1.59,3.33,3.33,0,0,1-2.06.6,3.73,3.73,0,0,1-1.57-.31,2.56,2.56,0,0,1-1.07-.88,2.12,2.12,0,0,1-.39-1.22h1.26a1.31,1.31,0,0,0,.51,1,2,2,0,0,0,1.25.37,2,2,0,0,0,1.15-.29A.89.89,0,0,0,977.77,576.18Zm-7.16-1.8a3.42,3.42,0,0,0-.5-2,1.65,1.65,0,0,0-1.44-.7,1.86,1.86,0,0,0-1.8,1.16V576a1.91,1.91,0,0,0,1.81,1.16,1.64,1.64,0,0,0,1.42-.7A3.63,3.63,0,0,0,970.61,574.38Zm1.26.14a4.4,4.4,0,0,1-.78,2.72,2.49,2.49,0,0,1-2.09,1,2.58,2.58,0,0,1-2.17-1l-.06.85h-1.16v-10.5h1.26v3.92a2.56,2.56,0,0,1,2.11-1,2.5,2.5,0,0,1,2.12,1,4.53,4.53,0,0,1,.77,2.79Zm-10.77-2.88a1.69,1.69,0,0,0-1.29.56,2.71,2.71,0,0,0-.64,1.56h3.71v-.1a2.41,2.41,0,0,0-.52-1.49A1.59,1.59,0,0,0,961.1,571.65Zm.16,6.63a3.23,3.23,0,0,1-2.45-1,3.67,3.67,0,0,1-.94-2.64v-.23a4.44,4.44,0,0,1,.42-2,3.28,3.28,0,0,1,1.18-1.35,3,3,0,0,1,1.64-.49,2.77,2.77,0,0,1,2.24,1,4.11,4.11,0,0,1,.8,2.72v.53h-5a2.63,2.63,0,0,0,.64,1.77,2,2,0,0,0,1.56.67,2.2,2.2,0,0,0,1.13-.27,2.85,2.85,0,0,0,.81-.72l.77.6A3.11,3.11,0,0,1,961.26,578.28Zm-7-1.88,1.42-5.65h1.26l-2.15,7.4h-1l-1.8-5.61-1.75,5.61h-1l-2.15-7.4h1.26l1.46,5.54,1.72-5.54h1ZM940,576.29l1.72-5.54h1.35l-3,8.54q-.69,1.85-2.19,1.85l-.24,0-.47-.09v-1l.34,0a1.68,1.68,0,0,0,1-.26,1.88,1.88,0,0,0,.59-1l.28-.75-2.64-7.31h1.38Zm-13.5-5.54,0,.82a2.73,2.73,0,0,1,2.19-1,2.11,2.11,0,0,1,2.11,1.19,2.8,2.8,0,0,1,1-.86,2.84,2.84,0,0,1,1.4-.33q2.43,0,2.47,2.58v5h-1.26v-4.88a1.7,1.7,0,0,0-.36-1.19,1.59,1.59,0,0,0-1.22-.39,1.68,1.68,0,0,0-1.17.42,1.71,1.71,0,0,0-.54,1.13v4.91h-1.27V573.3a1.41,1.41,0,0,0-1.58-1.61,1.69,1.69,0,0,0-1.7,1.06v5.4H925.3v-7.4Zm-6.68,7.4h-1.26v-10.5h1.26Zm-3.4,0h-1.26v-10.5h1.26Zm-6.52-1a2.22,2.22,0,0,0,1.13-.31,1.86,1.86,0,0,0,.77-.8v-1.52h-1q-2.32,0-2.32,1.36a1.15,1.15,0,0,0,.4.93A1.52,1.52,0,0,0,909.9,577.18Zm2.1,1a2.66,2.66,0,0,1-.18-.78,2.82,2.82,0,0,1-2.11.92,2.61,2.61,0,0,1-1.79-.62,2,2,0,0,1-.7-1.57,2.09,2.09,0,0,1,.88-1.79,4.14,4.14,0,0,1,2.47-.64h1.23v-.58a1.42,1.42,0,0,0-.4-1.06,1.59,1.59,0,0,0-1.17-.39,1.84,1.84,0,0,0-1.13.34,1,1,0,0,0-.46.83h-1.27a1.74,1.74,0,0,1,.39-1.07,2.69,2.69,0,0,1,1.07-.82,3.58,3.58,0,0,1,1.48-.3,2.92,2.92,0,0,1,2,.64,2.31,2.31,0,0,1,.75,1.76v3.4a4.16,4.16,0,0,0,.26,1.62v.11Zm-12.54-6.49a1.69,1.69,0,0,0-1.29.56,2.71,2.71,0,0,0-.64,1.56h3.71v-.1a2.41,2.41,0,0,0-.52-1.49A1.59,1.59,0,0,0,899.46,571.65Zm.16,6.63a3.23,3.23,0,0,1-2.45-1,3.67,3.67,0,0,1-.94-2.64v-.23a4.44,4.44,0,0,1,.42-2,3.28,3.28,0,0,1,1.18-1.35,3,3,0,0,1,1.64-.49,2.77,2.77,0,0,1,2.24,1,4.11,4.11,0,0,1,.8,2.72v.53h-5a2.63,2.63,0,0,0,.64,1.77,2,2,0,0,0,1.56.67,2.2,2.2,0,0,0,1.13-.27,2.85,2.85,0,0,0,.81-.72l.77.6A3.11,3.11,0,0,1,899.62,578.28Zm-4.1-6.4a3.81,3.81,0,0,0-.62,0,1.67,1.67,0,0,0-1.69,1.06v5.25h-1.26v-7.4h1.23l0,.85a2,2,0,0,1,1.76-1,1.29,1.29,0,0,1,.56.1Zm-10.62,2.65a3.16,3.16,0,0,0,.57,2,1.93,1.93,0,0,0,3.06,0,3.46,3.46,0,0,0,.57-2.12,3.16,3.16,0,0,0-.58-2,1.84,1.84,0,0,0-1.53-.76,1.82,1.82,0,0,0-1.51.75A3.43,3.43,0,0,0,884.9,574.53Zm-1.27-.15a4.37,4.37,0,0,1,.43-2,3.19,3.19,0,0,1,1.19-1.34,3.24,3.24,0,0,1,1.74-.47,3.12,3.12,0,0,1,2.44,1,4,4,0,0,1,.93,2.78v.09a4.4,4.4,0,0,1-.41,1.94,3.14,3.14,0,0,1-1.18,1.34,3.28,3.28,0,0,1-1.77.48,3.11,3.11,0,0,1-2.44-1,4,4,0,0,1-.93-2.77Zm-1.69,3.77h-1.26v-10.5h1.26Zm-4.25-3.76a3.27,3.27,0,0,0-.53-2,1.72,1.72,0,0,0-1.46-.72,1.86,1.86,0,0,0-1.72,1v3.53a1.86,1.86,0,0,0,1.74,1,1.71,1.71,0,0,0,1.45-.72A3.57,3.57,0,0,0,877.69,574.38Zm1.26.14a4.43,4.43,0,0,1-.77,2.72,2.48,2.48,0,0,1-2.09,1,2.71,2.71,0,0,1-2.12-.85V581h-1.26V570.75h1.16l.06.82a2.6,2.6,0,0,1,2.15-1,2.52,2.52,0,0,1,2.11,1,4.48,4.48,0,0,1,.78,2.8Zm-10.71-1.08,1.64-2.7h1.48l-2.42,3.66,2.5,3.74H870l-1.71-2.77-1.71,2.77h-1.47l2.5-3.74-2.42-3.66h1.46Zm-7-1.8a1.69,1.69,0,0,0-1.29.56,2.71,2.71,0,0,0-.64,1.56H863v-.1a2.41,2.41,0,0,0-.52-1.49A1.59,1.59,0,0,0,861.27,571.65Zm.16,6.63a3.23,3.23,0,0,1-2.45-1,3.67,3.67,0,0,1-.94-2.64v-.23a4.44,4.44,0,0,1,.42-2,3.28,3.28,0,0,1,1.18-1.35,3,3,0,0,1,1.64-.49,2.77,2.77,0,0,1,2.24,1,4.11,4.11,0,0,1,.8,2.72v.53h-5a2.63,2.63,0,0,0,.64,1.77,2,2,0,0,0,1.56.67,2.2,2.2,0,0,0,1.13-.27,2.85,2.85,0,0,0,.81-.72l.77.6A3.11,3.11,0,0,1,861.42,578.28Zm-11-6.63a1.69,1.69,0,0,0-1.29.56,2.71,2.71,0,0,0-.64,1.56h3.71v-.1a2.41,2.41,0,0,0-.52-1.49A1.59,1.59,0,0,0,850.38,571.65Zm.16,6.63a3.23,3.23,0,0,1-2.45-1,3.67,3.67,0,0,1-.94-2.64v-.23a4.44,4.44,0,0,1,.42-2,3.28,3.28,0,0,1,1.18-1.35,3,3,0,0,1,1.64-.49,2.77,2.77,0,0,1,2.24,1,4.11,4.11,0,0,1,.8,2.72v.53h-5a2.63,2.63,0,0,0,.64,1.77,2,2,0,0,0,1.56.67,2.2,2.2,0,0,0,1.13-.27,2.85,2.85,0,0,0,.81-.72l.77.6A3.11,3.11,0,0,1,850.54,578.28Zm-6-2.1a.93.93,0,0,0-.39-.8,3.72,3.72,0,0,0-1.35-.49,6.37,6.37,0,0,1-1.52-.49,2.17,2.17,0,0,1-.83-.68,1.63,1.63,0,0,1-.27-.94,1.92,1.92,0,0,1,.77-1.54,3,3,0,0,1,2-.63,3.09,3.09,0,0,1,2,.65,2.06,2.06,0,0,1,.78,1.66h-1.27a1.14,1.14,0,0,0-.44-.9,1.65,1.65,0,0,0-1.11-.38,1.73,1.73,0,0,0-1.08.3,1,1,0,0,0-.39.79.77.77,0,0,0,.36.69,4.46,4.46,0,0,0,1.31.44,6.82,6.82,0,0,1,1.53.51,2.23,2.23,0,0,1,.87.71,1.74,1.74,0,0,1,.28,1,1.89,1.89,0,0,1-.79,1.59,3.33,3.33,0,0,1-2.06.6,3.73,3.73,0,0,1-1.57-.31,2.56,2.56,0,0,1-1.07-.88,2.12,2.12,0,0,1-.39-1.22h1.26a1.31,1.31,0,0,0,.51,1,2,2,0,0,0,1.25.37,2,2,0,0,0,1.15-.29A.89.89,0,0,0,844.56,576.18Zm-9.45,1a2.22,2.22,0,0,0,1.13-.31,1.86,1.86,0,0,0,.77-.8v-1.52h-1q-2.32,0-2.32,1.36a1.15,1.15,0,0,0,.4.93A1.52,1.52,0,0,0,835.1,577.18Zm2.1,1a2.66,2.66,0,0,1-.18-.78,2.82,2.82,0,0,1-2.11.92,2.61,2.61,0,0,1-1.79-.62,2,2,0,0,1-.7-1.57,2.09,2.09,0,0,1,.88-1.79,4.14,4.14,0,0,1,2.47-.64H837v-.58a1.42,1.42,0,0,0-.4-1.06,1.59,1.59,0,0,0-1.17-.39,1.84,1.84,0,0,0-1.13.34,1,1,0,0,0-.46.83h-1.27a1.74,1.74,0,0,1,.39-1.07,2.69,2.69,0,0,1,1.07-.82,3.58,3.58,0,0,1,1.48-.3,2.92,2.92,0,0,1,2,.64,2.31,2.31,0,0,1,.75,1.76v3.4a4.16,4.16,0,0,0,.26,1.62v.11Zm-9.07-6.49a1.69,1.69,0,0,0-1.29.56,2.71,2.71,0,0,0-.64,1.56h3.71v-.1a2.41,2.41,0,0,0-.52-1.49A1.59,1.59,0,0,0,828.13,571.65Zm.16,6.63a3.23,3.23,0,0,1-2.45-1,3.67,3.67,0,0,1-.94-2.64v-.23a4.44,4.44,0,0,1,.42-2,3.28,3.28,0,0,1,1.18-1.35,3,3,0,0,1,1.64-.49,2.77,2.77,0,0,1,2.24,1,4.11,4.11,0,0,1,.8,2.72v.53h-5a2.63,2.63,0,0,0,.64,1.77,2,2,0,0,0,1.56.67,2.2,2.2,0,0,0,1.13-.27,2.85,2.85,0,0,0,.81-.72l.77.6A3.11,3.11,0,0,1,828.29,578.28Zm-5.09-.14h-1.26v-10.5h1.26Zm-8.7-5h2.36a2.36,2.36,0,0,0,1.61-.5,1.82,1.82,0,0,0,.56-1.43,1.88,1.88,0,0,0-.56-1.42,2.21,2.21,0,0,0-1.54-.55H814.5Zm0,1.07v3.9h-1.31v-10h3.67a3.69,3.69,0,0,1,2.56.83,2.83,2.83,0,0,1,.93,2.21,2.79,2.79,0,0,1-.91,2.23,3.85,3.85,0,0,1-2.59.78Z" transform="translate(-710 -481)" style="opacity:0.2;mix-blend-mode:darken;fill:url(#a)"/></g></svg>