<svg xmlns="http://www.w3.org/2000/svg" viewBox="0 0 681.87 208.21"><defs><style>.cls-1{fill:#616161;stroke:#616161;stroke-miterlimit:10;}.cls-2{fill:#fff;}</style></defs><title>Asset 1</title><g id="Layer_2" data-name="Layer 2"><g id="Layer_1-2" data-name="Layer 1"><rect x="0.5" y="0.5" width="207.21" height="207.21"/><rect class="cls-1" x="0.5" y="0.5" width="207.21" height="207.21"/><path style="fill: #616161" d="M272.92,49c-15,0-29.92.14-44.88.14v95.2h18v-28h26.93C319.57,116.28,319.44,49,272.92,49Zm0,50.86H246V66.09h26.93C295.77,66.09,295.91,99.82,272.92,99.82Z"/><path style="fill: #616161" d="M319.71,144.3H391V126.61H337.52V105.13h51.54V88.4H337.52V66.5H391V49.09H319.71Z"/><path style="fill: #616161" d="M437.75,49.09,395,144.3H414.5l8.16-18h49.78l8,18H500l-42.7-95.2Zm-7.89,60.52,17.68-40.53,17.68,40.53Z"/><polygon style="fill: #616161" points="534.86 123.22 506.16 49.09 486.03 49.09 525.61 144.7 544.24 144.7 583.82 49.09 563.69 49.09 534.86 123.22"/><polygon style="fill: #616161" points="660.25 49.09 634.95 88.4 610.75 49.09 589.39 49.09 589.39 49.91 625.98 104.99 625.98 144.29 643.93 144.29 643.93 104.99 681.88 49.91 681.88 49.09 660.25 49.09"/><path class="cls-2" d="M142,99.71c13-5.8,18.2-16.2,18.2-27,0-28.2-20.6-40.6-48.2-40.6H45.63v140H112c29,0,52.4-10,52.4-41.2C164.43,122.11,158.43,104.71,142,99.71Zm-70.4-43.6H112c16.8,0,22,10.8,22,17.2,0,8-5.4,15-22,15H71.63Zm40.4,91.4H71.63v-36H112c10.8,0,26.2,6.6,26.2,19.2C138.23,143.91,122.83,147.51,112,147.51Z"/></g></g></svg>